ply
format ascii 1.0
element vertex 343
property float end_x
property float end_y
property float end_z
property int path_id
property int group_id
end_header
0.556207 -4.465494 0.000000 0 0
0.991862 -4.389329 0.000000 1 0
1.417936 -4.270768 0.000000 2 0
1.830315 -4.110955 0.000000 3 0
2.225014 -3.911433 0.000000 4 0
2.598222 -3.674131 0.000000 5 0
2.946334 -3.401341 0.000000 6 0
1.222742 -4.330693 0.000000 7 0
1.641946 -4.189751 0.000000 8 0
2.045290 -4.008340 0.000000 9 0
2.428878 -3.788212 0.000000 10 0
2.789006 -3.531494 0.000000 11 0
3.122194 -3.240664 0.000000 12 0
3.425225 -2.918533 0.000000 13 0
1.861354 -4.096994 0.000000 14 0
2.254533 -3.894494 0.000000 15 0
2.625935 -3.654376 0.000000 16 0
2.971974 -3.378960 0.000000 17 0
3.289306 -3.070907 0.000000 18 0
3.574866 -2.733191 0.000000 19 0
3.825896 -2.369076 0.000000 20 0
2.457459 -3.769734 0.000000 21 0
2.815635 -3.510299 0.000000 22 0
3.146614 -3.216958 0.000000 23 0
3.447200 -2.892544 0.000000 24 0
3.714489 -2.540191 0.000000 25 0
3.945900 -2.163302 0.000000 26 0
4.139197 -1.765517 0.000000 27 0
2.997444 -3.356386 0.000000 28 0
3.312437 -3.045942 0.000000 29 0
3.595435 -2.706076 0.000000 30 0
3.843704 -2.340073 0.000000 31 0
4.054847 -1.951466 0.000000 32 0
4.226823 -1.544010 0.000000 33 0
4.357972 -1.121640 0.000000 34 0
3.468978 -2.866390 0.000000 35 0
3.733594 -2.512026 0.000000 36 0
3.962148 -2.133397 0.000000 37 0
4.152431 -1.734162 0.000000 38 0
4.302605 -1.318176 0.000000 39 0
4.411220 -0.889458 0.000000 40 0
4.477227 -0.452149 0.000000 41 0
3.861292 -2.310936 0.000000 42 0
4.069490 -1.920743 0.000000 43 0
4.238380 -1.511998 0.000000 44 0
4.366331 -1.088649 0.000000 45 0
4.452107 -0.654784 0.000000 46 0
4.494880 -0.214594 0.000000 47 0
4.494237 0.227668 0.000000 48 0
1.571028 -4.216856 0.000000 49 1
1.977375 -4.042275 0.000000 50 1
2.364622 -3.828650 0.000000 51 1
2.729030 -3.578044 0.000000 52 1
3.067077 -3.292877 0.000000 53 1
3.375500 -2.975903 0.000000 54 1
3.651318 -2.630186 0.000000 55 1
2.188509 -3.931975 0.000000 56 1
2.563910 -3.698157 0.000000 57 1
2.914545 -3.428619 0.000000 58 1
3.237029 -3.125963 0.000000 59 1
3.528246 -2.793113 0.000000 60 1
3.785384 -2.433284 0.000000 61 1
4.005958 -2.049952 0.000000 62 1
2.756013 -3.557302 0.000000 63 1
3.091894 -3.269586 0.000000 64 1
3.397910 -2.950289 0.000000 65 1
3.671106 -2.602496 0.000000 66 1
3.908842 -2.229564 0.000000 67 1
4.108822 -1.835097 0.000000 68 1
4.269115 -1.422905 0.000000 69 1
3.260578 -3.101392 0.000000 70 1
3.549270 -2.766349 0.000000 71 1
3.803678 -2.404586 0.000000 72 1
4.021347 -2.019596 0.000000 73 1
4.200173 -1.615100 0.000000 74 1
4.338429 -1.195003 0.000000 75 1
4.434780 -0.763363 0.000000 76 1
3.690683 -2.574656 0.000000 77 1
3.925592 -2.199938 0.000000 78 1
4.122583 -1.803969 0.000000 79 1
4.279754 -1.390576 0.000000 80 1
4.395587 -0.963752 0.000000 81 1
4.468962 -0.527618 0.000000 82 1
4.499171 -0.086388 0.000000 83 1
4.036506 -1.989125 0.000000 84 1
4.212268 -1.583287 0.000000 85 1
4.347343 -1.162157 0.000000 86 1
4.440427 -0.729801 0.000000 87 1
4.490620 -0.290395 0.000000 88 1
4.497438 0.151815 0.000000 89 1
4.460815 0.592559 0.000000 90 1
4.290149 -1.358169 0.000000 91 1
4.402750 -0.930480 0.000000 92 1
4.472824 -0.493804 0.000000 93 1
4.499695 -0.052359 0.000000 94 1
4.483104 0.389593 0.000000 95 1
4.423209 0.827781 0.000000 96 1
4.320590 1.257974 0.000000 97 1
2.501154 -3.740886 0.000000 98 2
2.856287 -3.477301 0.000000 99 2
3.183831 -3.180129 0.000000 100 2
3.480622 -2.852239 0.000000 101 2
3.743794 -2.496800 0.000000 102 2
3.970803 -2.117244 0.000000 103 2
4.159459 -1.717237 0.000000 104 2
3.036294 -3.321283 0.000000 105 2
3.347653 -3.007195 0.000000 106 2
3.626677 -2.664059 0.000000 107 2
3.870671 -2.295192 0.000000 108 2
4.077278 -1.904155 0.000000 109 2
4.244502 -1.494725 0.000000 110 2
4.370728 -1.070858 0.000000 111 2
3.502094 -2.825834 0.000000 112 2
3.762570 -2.468414 0.000000 113 2
3.986703 -2.087152 0.000000 114 2
4.172327 -1.685730 0.000000 115 2
4.317651 -1.268025 0.000000 116 2
4.421271 -0.838072 0.000000 117 2
4.482185 -0.400024 0.000000 118 2
3.887919 -2.265852 0.000000 119 2
4.091562 -1.873264 0.000000 120 2
4.255685 -1.462581 0.000000 121 2
4.378702 -1.037771 0.000000 122 2
4.459424 -0.602938 0.000000 123 2
4.497073 -0.162280 0.000000 124 2
4.491284 0.279944 0.000000 125 2
4.184957 -1.654126 0.000000 126 2
4.327118 -1.235334 0.000000 127 2
4.427483 -0.804610 0.000000 128 2
4.485082 -0.366114 0.000000 129 2
4.499360 0.075918 0.000000 130 2
4.470177 0.517217 0.000000 131 2
4.397818 0.953520 0.000000 132 2
4.386425 -1.004626 0.000000 133 2
4.463857 -0.569194 0.000000 134 2
4.498172 -0.128264 0.000000 135 2
4.489038 0.313904 0.000000 136 2
4.436545 0.753041 0.000000 137 2
4.341198 1.184903 0.000000 138 2
4.203920 1.605321 0.000000 139 2
4.487723 -0.332183 0.000000 140 2
4.498657 0.109945 0.000000 141 2
4.466138 0.551010 0.000000 142 2
4.390480 0.986754 0.000000 143 2
4.272415 1.412966 0.000000 144 2
4.113081 1.825530 0.000000 145 2
3.914020 2.220462 0.000000 146 2
3.296443 -3.063244 0.000000 147 3
3.581217 -2.724865 0.000000 148 3
3.831399 -2.360166 0.000000 149 3
4.044573 -1.972670 0.000000 150 3
4.218681 -1.566120 0.000000 151 3
4.352040 -1.144443 0.000000 152 3
4.443362 -0.711711 0.000000 153 3
3.720390 -2.531540 0.000000 154 3
3.950923 -2.154113 0.000000 155 3
4.143294 -1.755880 0.000000 156 3
4.295644 -1.340686 0.000000 157 3
4.406503 -0.912543 0.000000 158 3
4.474798 -0.475585 0.000000 159 3
4.499871 -0.034034 0.000000 160 3
4.059377 -1.942025 0.000000 161 3
4.230405 -1.534169 0.000000 162 3
4.360571 -1.111496 0.000000 163 3
4.448618 -0.678086 0.000000 164 3
4.493695 -0.238126 0.000000 165 3
4.495368 0.204133 0.000000 166 3
4.453619 0.644421 0.000000 167 3
4.305661 -1.308160 0.000000 168 3
4.413278 -0.879190 0.000000 169 3
4.478267 -0.441728 0.000000 170 3
4.500000 0.000000 0.000000 171 3
4.478267 0.441728 0.000000 172 3
4.413278 0.879190 0.000000 173 3
4.305661 1.308160 0.000000 174 3
4.453619 -0.644421 0.000000 175 3
4.495368 -0.204133 0.000000 176 3
4.493695 0.238126 0.000000 177 3
4.448618 0.678086 0.000000 178 3
4.360571 1.111496 0.000000 179 3
4.230405 1.534169 0.000000 180 3
4.059377 1.942025 0.000000 181 3
4.499871 0.034034 0.000000 182 3
4.474798 0.475585 0.000000 183 3
4.406503 0.912543 0.000000 184 3
4.295644 1.340686 0.000000 185 3
4.143294 1.755880 0.000000 186 3
3.950923 2.154113 0.000000 187 3
3.720390 2.531540 0.000000 188 3
4.443362 0.711711 0.000000 189 3
4.352040 1.144443 0.000000 190 3
4.218681 1.566120 0.000000 191 3
4.044573 1.972670 0.000000 192 3
3.831399 2.360166 0.000000 193 3
3.581217 2.724865 0.000000 194 3
3.296443 3.063244 0.000000 195 3
3.914020 -2.220462 0.000000 196 4
4.113081 -1.825530 0.000000 197 4
4.272415 -1.412966 0.000000 198 4
4.390480 -0.986754 0.000000 199 4
4.466138 -0.551010 0.000000 200 4
4.498657 -0.109945 0.000000 201 4
4.487723 0.332183 0.000000 202 4
4.203920 -1.605321 0.000000 203 4
4.341198 -1.184903 0.000000 204 4
4.436545 -0.753041 0.000000 205 4
4.489038 -0.313904 0.000000 206 4
4.498172 0.128264 0.000000 207 4
4.463857 0.569194 0.000000 208 4
4.386425 1.004626 0.000000 209 4
4.397818 -0.953520 0.000000 210 4
4.470177 -0.517217 0.000000 211 4
4.499360 -0.075918 0.000000 212 4
4.485082 0.366114 0.000000 213 4
4.427483 0.804610 0.000000 214 4
4.327118 1.235334 0.000000 215 4
4.184957 1.654126 0.000000 216 4
4.491284 -0.279944 0.000000 217 4
4.497073 0.162280 0.000000 218 4
4.459424 0.602938 0.000000 219 4
4.378702 1.037771 0.000000 220 4
4.255685 1.462581 0.000000 221 4
4.091562 1.873264 0.000000 222 4
3.887919 2.265852 0.000000 223 4
4.482185 0.400024 0.000000 224 4
4.421271 0.838072 0.000000 225 4
4.317651 1.268025 0.000000 226 4
4.172327 1.685730 0.000000 227 4
3.986703 2.087152 0.000000 228 4
3.762570 2.468414 0.000000 229 4
3.502094 2.825834 0.000000 230 4
4.370728 1.070858 0.000000 231 4
4.244502 1.494725 0.000000 232 4
4.077278 1.904155 0.000000 233 4
3.870671 2.295192 0.000000 234 4
3.626677 2.664059 0.000000 235 4
3.347653 3.007195 0.000000 236 4
3.036294 3.321283 0.000000 237 4
4.159459 1.717237 0.000000 238 4
3.970803 2.117244 0.000000 239 4
3.743794 2.496800 0.000000 240 4
3.480622 2.852239 0.000000 241 4
3.183831 3.180129 0.000000 242 4
2.856287 3.477301 0.000000 243 4
2.501154 3.740886 0.000000 244 4
4.320590 -1.257974 0.000000 245 5
4.423209 -0.827781 0.000000 246 5
4.483104 -0.389593 0.000000 247 5
4.499695 0.052359 0.000000 248 5
4.472824 0.493804 0.000000 249 5
4.402750 0.930480 0.000000 250 5
4.290149 1.358169 0.000000 251 5
4.460815 -0.592559 0.000000 252 5
4.497438 -0.151815 0.000000 253 5
4.490620 0.290395 0.000000 254 5
4.440427 0.729801 0.000000 255 5
4.347343 1.162157 0.000000 256 5
4.212268 1.583287 0.000000 257 5
4.036506 1.989125 0.000000 258 5
4.499171 0.086388 0.000000 259 5
4.468962 0.527618 0.000000 260 5
4.395587 0.963752 0.000000 261 5
4.279754 1.390576 0.000000 262 5
4.122583 1.803969 0.000000 263 5
3.925592 2.199938 0.000000 264 5
3.690683 2.574656 0.000000 265 5
4.434780 0.763363 0.000000 266 5
4.338429 1.195003 0.000000 267 5
4.200173 1.615100 0.000000 268 5
4.021347 2.019596 0.000000 269 5
3.803678 2.404586 0.000000 270 5
3.549270 2.766349 0.000000 271 5
3.260578 3.101392 0.000000 272 5
4.269115 1.422905 0.000000 273 5
4.108822 1.835097 0.000000 274 5
3.908842 2.229564 0.000000 275 5
3.671106 2.602496 0.000000 276 5
3.397910 2.950289 0.000000 277 5
3.091894 3.269586 0.000000 278 5
2.756013 3.557302 0.000000 279 5
4.005958 2.049952 0.000000 280 5
3.785384 2.433284 0.000000 281 5
3.528246 2.793113 0.000000 282 5
3.237029 3.125963 0.000000 283 5
2.914545 3.428619 0.000000 284 5
2.563910 3.698157 0.000000 285 5
2.188509 3.931975 0.000000 286 5
3.651318 2.630186 0.000000 287 5
3.375500 2.975903 0.000000 288 5
3.067077 3.292877 0.000000 289 5
2.729030 3.578044 0.000000 290 5
2.364622 3.828650 0.000000 291 5
1.977375 4.042275 0.000000 292 5
1.571028 4.216856 0.000000 293 5
4.494237 -0.227668 0.000000 294 6
4.494880 0.214594 0.000000 295 6
4.452107 0.654784 0.000000 296 6
4.366331 1.088649 0.000000 297 6
4.238380 1.511998 0.000000 298 6
4.069490 1.920743 0.000000 299 6
3.861292 2.310936 0.000000 300 6
4.477227 0.452149 0.000000 301 6
4.411220 0.889458 0.000000 302 6
4.302605 1.318176 0.000000 303 6
4.152431 1.734162 0.000000 304 6
3.962148 2.133397 0.000000 305 6
3.733594 2.512026 0.000000 306 6
3.468978 2.866390 0.000000 307 6
4.357972 1.121640 0.000000 308 6
4.226823 1.544010 0.000000 309 6
4.054847 1.951466 0.000000 310 6
3.843704 2.340073 0.000000 311 6
3.595435 2.706076 0.000000 312 6
3.312437 3.045942 0.000000 313 6
2.997444 3.356386 0.000000 314 6
4.139197 1.765517 0.000000 315 6
3.945900 2.163302 0.000000 316 6
3.714489 2.540191 0.000000 317 6
3.447200 2.892544 0.000000 318 6
3.146614 3.216958 0.000000 319 6
2.815635 3.510299 0.000000 320 6
2.457459 3.769734 0.000000 321 6
3.825896 2.369076 0.000000 322 6
3.574866 2.733191 0.000000 323 6
3.289306 3.070907 0.000000 324 6
2.971974 3.378960 0.000000 325 6
2.625935 3.654376 0.000000 326 6
2.254533 3.894494 0.000000 327 6
1.861354 4.096994 0.000000 328 6
3.425225 2.918533 0.000000 329 6
3.122194 3.240664 0.000000 330 6
2.789006 3.531494 0.000000 331 6
2.428878 3.788212 0.000000 332 6
2.045290 4.008340 0.000000 333 6
1.641946 4.189751 0.000000 334 6
1.222742 4.330693 0.000000 335 6
2.946334 3.401341 0.000000 336 6
2.598222 3.674131 0.000000 337 6
2.225014 3.911433 0.000000 338 6
1.830315 4.110955 0.000000 339 6
1.417936 4.270768 0.000000 340 6
0.991862 4.389329 0.000000 341 6
0.556207 4.465494 0.000000 342 6
