ply
format ascii 1.0
element vertex 1057
property float x
property float y
property float z
property int group_id
end_header
0.000000 0.000000 0.000000 0
0.010000 -0.000047 0.000000 0
0.019999 -0.000186 0.000000 0
0.029997 -0.000419 0.000000 0
0.039993 -0.000745 0.000000 0
0.049986 -0.001163 0.000000 0
0.059977 -0.001675 0.000000 0
0.069963 -0.002280 0.000000 0
0.079945 -0.002978 0.000000 0
0.089921 -0.003769 0.000000 0
0.099892 -0.004653 0.000000 0
0.109856 -0.005629 0.000000 0
0.119813 -0.006699 0.000000 0
0.129762 -0.007861 0.000000 0
0.139703 -0.009116 0.000000 0
0.149635 -0.010463 0.000000 0
0.159557 -0.011904 0.000000 0
0.169468 -0.013437 0.000000 0
0.179369 -0.015062 0.000000 0
0.189258 -0.016780 0.000000 0
0.199134 -0.018590 0.000000 0
0.208998 -0.020492 0.000000 0
0.218848 -0.022487 0.000000 0
0.228683 -0.024574 0.000000 0
0.238504 -0.026753 0.000000 0
0.248310 -0.029023 0.000000 0
0.258099 -0.031386 0.000000 0
0.267871 -0.033840 0.000000 0
0.277626 -0.036386 0.000000 0
0.287362 -0.039023 0.000000 0
0.297080 -0.041752 0.000000 0
0.306779 -0.044572 0.000000 0
0.316458 -0.047483 0.000000 0
0.326115 -0.050485 0.000000 0
0.335752 -0.053578 0.000000 0
0.345367 -0.056762 0.000000 0
0.354959 -0.060037 0.000000 0
0.364527 -0.063402 0.000000 0
0.374072 -0.066857 0.000000 0
0.383593 -0.070402 0.000000 0
0.393088 -0.074038 0.000000 0
0.402558 -0.077763 0.000000 0
0.412001 -0.081578 0.000000 0
0.421417 -0.085483 0.000000 0
0.430806 -0.089477 0.000000 0
0.440166 -0.093560 0.000000 0
0.449498 -0.097732 0.000000 0
0.458800 -0.101994 0.000000 0
0.468072 -0.106343 0.000000 0
0.477313 -0.110781 0.000000 0
0.486522 -0.115308 0.000000 0
0.495700 -0.119922 0.000000 0
0.504845 -0.124625 0.000000 0
0.513957 -0.129415 0.000000 0
0.523035 -0.134293 0.000000 0
0.532078 -0.139257 0.000000 0
0.541087 -0.144309 0.000000 0
0.550059 -0.149448 0.000000 0
0.558996 -0.154673 0.000000 0
0.567895 -0.159985 0.000000 0
0.576757 -0.165382 0.000000 0
0.585581 -0.170866 0.000000 0
0.594366 -0.176435 0.000000 0
0.603111 -0.182090 0.000000 0
0.611817 -0.187830 0.000000 0
0.620482 -0.193655 0.000000 0
0.629106 -0.199564 0.000000 0
0.637688 -0.205558 0.000000 0
0.646228 -0.211636 0.000000 0
0.654724 -0.217798 0.000000 0
0.663178 -0.224043 0.000000 0
0.671587 -0.230372 0.000000 0
0.679951 -0.236784 0.000000 0
0.688270 -0.243279 0.000000 0
0.696543 -0.249856 0.000000 0
0.704769 -0.256515 0.000000 0
0.712949 -0.263256 0.000000 0
0.721081 -0.270079 0.000000 0
0.729164 -0.276983 0.000000 0
0.737199 -0.283969 0.000000 0
0.745184 -0.291035 0.000000 0
0.753119 -0.298181 0.000000 0
0.761004 -0.305407 0.000000 0
0.768837 -0.312713 0.000000 0
0.776619 -0.320099 0.000000 0
0.784348 -0.327564 0.000000 0
0.792025 -0.335107 0.000000 0
0.799648 -0.342729 0.000000 0
0.807217 -0.350430 0.000000 0
0.814731 -0.358208 0.000000 0
0.822191 -0.366063 0.000000 0
0.829595 -0.373995 0.000000 0
0.836942 -0.382005 0.000000 0
0.844233 -0.390090 0.000000 0
0.851467 -0.398252 0.000000 0
0.858642 -0.406490 0.000000 0
0.865759 -0.414802 0.000000 0
0.872817 -0.423190 0.000000 0
0.879816 -0.431652 0.000000 0
0.886755 -0.440189 0.000000 0
0.893633 -0.448799 0.000000 0
0.900450 -0.457483 0.000000 0
0.907205 -0.466240 0.000000 0
0.913898 -0.475069 0.000000 0
0.920528 -0.483971 0.000000 0
0.927095 -0.492945 0.000000 0
0.933598 -0.501990 0.000000 0
0.940037 -0.511107 0.000000 0
0.946411 -0.520294 0.000000 0
0.952720 -0.529551 0.000000 0
0.958963 -0.538879 0.000000 0
0.965139 -0.548275 0.000000 0
0.971249 -0.557741 0.000000 0
0.977291 -0.567276 0.000000 0
0.983266 -0.576878 0.000000 0
0.989172 -0.586549 0.000000 0
0.995009 -0.596287 0.000000 0
1.000776 -0.606092 0.000000 0
1.006474 -0.615963 0.000000 0
1.012101 -0.625900 0.000000 0
1.017658 -0.635903 0.000000 0
1.023143 -0.645971 0.000000 0
1.028556 -0.656104 0.000000 0
1.033897 -0.666301 0.000000 0
1.039165 -0.676562 0.000000 0
1.044360 -0.686886 0.000000 0
1.049481 -0.697273 0.000000 0
1.054528 -0.707723 0.000000 0
1.059500 -0.718234 0.000000 0
1.064396 -0.728807 0.000000 0
1.069218 -0.739441 0.000000 0
1.073963 -0.750136 0.000000 0
1.078631 -0.760891 0.000000 0
1.083223 -0.771705 0.000000 0
1.087737 -0.782578 0.000000 0
1.092173 -0.793510 0.000000 0
1.096531 -0.804500 0.000000 0
1.100810 -0.815548 0.000000 0
1.105009 -0.826653 0.000000 0
1.109129 -0.837814 0.000000 0
1.113169 -0.849032 0.000000 0
1.117128 -0.860305 0.000000 0
1.121007 -0.871633 0.000000 0
1.124804 -0.883016 0.000000 0
1.128519 -0.894453 0.000000 0
1.132151 -0.905943 0.000000 0
1.135701 -0.917487 0.000000 0
1.139168 -0.929083 0.000000 0
1.142552 -0.940731 0.000000 0
1.145851 -0.952431 0.000000 0
1.149067 -0.964181 0.000000 0
0.000000 0.000000 0.000000 1
0.010000 -0.000031 0.000000 1
0.020000 -0.000124 0.000000 1
0.029999 -0.000279 0.000000 1
0.039997 -0.000496 0.000000 1
0.049994 -0.000776 0.000000 1
0.059990 -0.001117 0.000000 1
0.069983 -0.001520 0.000000 1
0.079975 -0.001986 0.000000 1
0.089965 -0.002513 0.000000 1
0.099952 -0.003102 0.000000 1
0.109936 -0.003754 0.000000 1
0.119917 -0.004467 0.000000 1
0.129894 -0.005242 0.000000 1
0.139868 -0.006080 0.000000 1
0.149838 -0.006979 0.000000 1
0.159803 -0.007940 0.000000 1
0.169764 -0.008963 0.000000 1
0.179719 -0.010048 0.000000 1
0.189670 -0.011195 0.000000 1
0.199615 -0.012403 0.000000 1
0.209554 -0.013674 0.000000 1
0.219488 -0.015006 0.000000 1
0.229415 -0.016400 0.000000 1
0.239335 -0.017856 0.000000 1
0.249248 -0.019373 0.000000 1
0.259154 -0.020952 0.000000 1
0.269053 -0.022593 0.000000 1
0.278944 -0.024295 0.000000 1
0.288827 -0.026059 0.000000 1
0.298701 -0.027885 0.000000 1
0.308567 -0.029772 0.000000 1
0.318424 -0.031721 0.000000 1
0.328272 -0.033731 0.000000 1
0.338110 -0.035802 0.000000 1
0.347938 -0.037935 0.000000 1
0.357756 -0.040129 0.000000 1
0.367564 -0.042384 0.000000 1
0.377362 -0.044701 0.000000 1
0.387148 -0.047079 0.000000 1
0.396923 -0.049518 0.000000 1
0.406687 -0.052018 0.000000 1
0.416439 -0.054579 0.000000 1
0.426178 -0.057201 0.000000 1
0.435906 -0.059884 0.000000 1
0.445621 -0.062628 0.000000 1
0.455322 -0.065433 0.000000 1
0.465011 -0.068298 0.000000 1
0.474686 -0.071225 0.000000 1
0.484348 -0.074212 0.000000 1
0.493995 -0.077259 0.000000 1
0.503628 -0.080368 0.000000 1
0.513246 -0.083536 0.000000 1
0.522850 -0.086766 0.000000 1
0.532438 -0.090055 0.000000 1
0.542011 -0.093405 0.000000 1
0.551568 -0.096815 0.000000 1
0.561109 -0.100285 0.000000 1
0.570633 -0.103816 0.000000 1
0.580141 -0.107406 0.000000 1
0.589632 -0.111057 0.000000 1
0.599106 -0.114767 0.000000 1
0.608563 -0.118538 0.000000 1
0.618002 -0.122368 0.000000 1
0.627423 -0.126257 0.000000 1
0.636825 -0.130207 0.000000 1
0.646209 -0.134216 0.000000 1
0.655574 -0.138284 0.000000 1
0.664920 -0.142412 0.000000 1
0.674247 -0.146599 0.000000 1
0.683554 -0.150845 0.000000 1
0.692841 -0.155150 0.000000 1
0.702108 -0.159515 0.000000 1
0.711354 -0.163938 0.000000 1
0.720579 -0.168421 0.000000 1
0.729784 -0.172962 0.000000 1
0.738967 -0.177562 0.000000 1
0.748128 -0.182220 0.000000 1
0.757268 -0.186937 0.000000 1
0.766385 -0.191713 0.000000 1
0.775480 -0.196547 0.000000 1
0.784552 -0.201439 0.000000 1
0.793602 -0.206389 0.000000 1
0.802628 -0.211397 0.000000 1
0.811630 -0.216464 0.000000 1
0.820609 -0.221588 0.000000 1
0.829563 -0.226770 0.000000 1
0.838494 -0.232010 0.000000 1
0.847399 -0.237307 0.000000 1
0.856280 -0.242662 0.000000 1
0.865136 -0.248074 0.000000 1
0.873966 -0.253543 0.000000 1
0.882770 -0.259069 0.000000 1
0.891549 -0.264653 0.000000 1
0.900301 -0.270293 0.000000 1
0.909026 -0.275991 0.000000 1
0.917725 -0.281745 0.000000 1
0.926397 -0.287556 0.000000 1
0.935042 -0.293423 0.000000 1
0.943659 -0.299346 0.000000 1
0.952248 -0.305326 0.000000 1
0.960809 -0.311362 0.000000 1
0.969342 -0.317454 0.000000 1
0.977846 -0.323602 0.000000 1
0.986321 -0.329806 0.000000 1
0.994766 -0.336065 0.000000 1
1.003183 -0.342380 0.000000 1
1.011570 -0.348750 0.000000 1
1.019926 -0.355176 0.000000 1
1.028253 -0.361657 0.000000 1
1.036549 -0.368193 0.000000 1
1.044814 -0.374784 0.000000 1
1.053049 -0.381429 0.000000 1
1.061252 -0.388130 0.000000 1
1.069423 -0.394885 0.000000 1
1.077563 -0.401694 0.000000 1
1.085671 -0.408557 0.000000 1
1.093746 -0.415475 0.000000 1
1.101789 -0.422447 0.000000 1
1.109799 -0.429472 0.000000 1
1.117776 -0.436552 0.000000 1
1.125719 -0.443685 0.000000 1
1.133629 -0.450871 0.000000 1
1.141505 -0.458111 0.000000 1
1.149347 -0.465404 0.000000 1
1.157155 -0.472750 0.000000 1
1.164928 -0.480149 0.000000 1
1.172666 -0.487600 0.000000 1
1.180369 -0.495104 0.000000 1
1.188037 -0.502661 0.000000 1
1.195669 -0.510270 0.000000 1
1.203265 -0.517931 0.000000 1
1.210825 -0.525644 0.000000 1
1.218349 -0.533409 0.000000 1
1.225836 -0.541226 0.000000 1
1.233286 -0.549094 0.000000 1
1.240699 -0.557014 0.000000 1
1.248075 -0.564985 0.000000 1
1.255413 -0.573007 0.000000 1
1.262714 -0.581080 0.000000 1
1.269976 -0.589204 0.000000 1
1.277200 -0.597378 0.000000 1
1.284385 -0.605603 0.000000 1
1.291531 -0.613878 0.000000 1
1.298639 -0.622203 0.000000 1
1.305707 -0.630579 0.000000 1
1.312735 -0.639004 0.000000 1
1.319724 -0.647478 0.000000 1
1.326673 -0.656003 0.000000 1
1.333581 -0.664576 0.000000 1
1.340449 -0.673199 0.000000 1
0.000000 0.000000 0.000000 2
0.010000 -0.000016 0.000000 2
0.020000 -0.000062 0.000000 2
0.030000 -0.000140 0.000000 2
0.039999 -0.000248 0.000000 2
0.049998 -0.000388 0.000000 2
0.059997 -0.000558 0.000000 2
0.069996 -0.000760 0.000000 2
0.079994 -0.000993 0.000000 2
0.089991 -0.001257 0.000000 2
0.099988 -0.001551 0.000000 2
0.109984 -0.001877 0.000000 2
0.119979 -0.002234 0.000000 2
0.129974 -0.002622 0.000000 2
0.139967 -0.003041 0.000000 2
0.149959 -0.003490 0.000000 2
0.159951 -0.003971 0.000000 2
0.169941 -0.004483 0.000000 2
0.179930 -0.005026 0.000000 2
0.189917 -0.005600 0.000000 2
0.199904 -0.006205 0.000000 2
0.209889 -0.006840 0.000000 2
0.219872 -0.007507 0.000000 2
0.229854 -0.008205 0.000000 2
0.239834 -0.008934 0.000000 2
0.249812 -0.009694 0.000000 2
0.259789 -0.010485 0.000000 2
0.269763 -0.011306 0.000000 2
0.279736 -0.012159 0.000000 2
0.289707 -0.013043 0.000000 2
0.299675 -0.013958 0.000000 2
0.309642 -0.014903 0.000000 2
0.319606 -0.015880 0.000000 2
0.329568 -0.016887 0.000000 2
0.339527 -0.017926 0.000000 2
0.349484 -0.018995 0.000000 2
0.359439 -0.020096 0.000000 2
0.369391 -0.021227 0.000000 2
0.379340 -0.022389 0.000000 2
0.389286 -0.023582 0.000000 2
0.399230 -0.024807 0.000000 2
0.409171 -0.026062 0.000000 2
0.419109 -0.027347 0.000000 2
0.429044 -0.028664 0.000000 2
0.438975 -0.030012 0.000000 2
0.448904 -0.031390 0.000000 2
0.458829 -0.032800 0.000000 2
0.468751 -0.034240 0.000000 2
0.478670 -0.035711 0.000000 2
0.488585 -0.037213 0.000000 2
0.498496 -0.038746 0.000000 2
0.508404 -0.040310 0.000000 2
0.518309 -0.041904 0.000000 2
0.528209 -0.043530 0.000000 2
0.538106 -0.045186 0.000000 2
0.547999 -0.046873 0.000000 2
0.557888 -0.048591 0.000000 2
0.567773 -0.050339 0.000000 2
0.577654 -0.052119 0.000000 2
0.587530 -0.053929 0.000000 2
0.597402 -0.055770 0.000000 2
0.607270 -0.057642 0.000000 2
0.617134 -0.059544 0.000000 2
0.626993 -0.061477 0.000000 2
0.636848 -0.063441 0.000000 2
0.646698 -0.065436 0.000000 2
0.656543 -0.067461 0.000000 2
0.666384 -0.069517 0.000000 2
0.676220 -0.071604 0.000000 2
0.686050 -0.073721 0.000000 2
0.695876 -0.075869 0.000000 2
0.705697 -0.078048 0.000000 2
0.715513 -0.080258 0.000000 2
0.725323 -0.082498 0.000000 2
0.735129 -0.084768 0.000000 2
0.744929 -0.087070 0.000000 2
0.754723 -0.089402 0.000000 2
0.764512 -0.091764 0.000000 2
0.774296 -0.094157 0.000000 2
0.784074 -0.096581 0.000000 2
0.793846 -0.099035 0.000000 2
0.803613 -0.101520 0.000000 2
0.813374 -0.104035 0.000000 2
0.823128 -0.106581 0.000000 2
0.832877 -0.109157 0.000000 2
0.842620 -0.111764 0.000000 2
0.852357 -0.114402 0.000000 2
0.862087 -0.117070 0.000000 2
0.871812 -0.119768 0.000000 2
0.881530 -0.122497 0.000000 2
0.891241 -0.125256 0.000000 2
0.900946 -0.128045 0.000000 2
0.910645 -0.130865 0.000000 2
0.920337 -0.133716 0.000000 2
0.930022 -0.136597 0.000000 2
0.939701 -0.139508 0.000000 2
0.949373 -0.142449 0.000000 2
0.959037 -0.145421 0.000000 2
0.968695 -0.148423 0.000000 2
0.978346 -0.151456 0.000000 2
0.987990 -0.154519 0.000000 2
0.997626 -0.157612 0.000000 2
1.007256 -0.160735 0.000000 2
1.016878 -0.163889 0.000000 2
1.026492 -0.167073 0.000000 2
1.036100 -0.170287 0.000000 2
1.045699 -0.173531 0.000000 2
1.055291 -0.176806 0.000000 2
1.064876 -0.180110 0.000000 2
1.074452 -0.183445 0.000000 2
1.084021 -0.186810 0.000000 2
1.093582 -0.190205 0.000000 2
1.103135 -0.193630 0.000000 2
1.112680 -0.197086 0.000000 2
1.122217 -0.200571 0.000000 2
1.131746 -0.204086 0.000000 2
1.141266 -0.207632 0.000000 2
1.150779 -0.211207 0.000000 2
1.160282 -0.214813 0.000000 2
1.169778 -0.218448 0.000000 2
1.179265 -0.222114 0.000000 2
1.188743 -0.225809 0.000000 2
1.198213 -0.229535 0.000000 2
1.207674 -0.233290 0.000000 2
1.217126 -0.237075 0.000000 2
1.226569 -0.240890 0.000000 2
1.236003 -0.244735 0.000000 2
1.245429 -0.248610 0.000000 2
1.254845 -0.252515 0.000000 2
1.264252 -0.256449 0.000000 2
1.273650 -0.260413 0.000000 2
1.283039 -0.264407 0.000000 2
1.292418 -0.268431 0.000000 2
1.301788 -0.272485 0.000000 2
1.311148 -0.276568 0.000000 2
1.320499 -0.280681 0.000000 2
1.329840 -0.284823 0.000000 2
1.339172 -0.288996 0.000000 2
1.348494 -0.293197 0.000000 2
1.357806 -0.297429 0.000000 2
1.367108 -0.301690 0.000000 2
1.376400 -0.305981 0.000000 2
1.385682 -0.310301 0.000000 2
1.394953 -0.314651 0.000000 2
1.404215 -0.319030 0.000000 2
1.413466 -0.323439 0.000000 2
1.422708 -0.327877 0.000000 2
1.431938 -0.332344 0.000000 2
1.441158 -0.336841 0.000000 2
1.450368 -0.341368 0.000000 2
1.459567 -0.345924 0.000000 2
0.000000 0.000000 0.000000 3
0.010000 0.000000 0.000000 3
0.020000 0.000000 0.000000 3
0.030000 0.000000 0.000000 3
0.040000 0.000000 0.000000 3
0.050000 0.000000 0.000000 3
0.060000 0.000000 0.000000 3
0.070000 0.000000 0.000000 3
0.080000 0.000000 0.000000 3
0.090000 0.000000 0.000000 3
0.100000 0.000000 0.000000 3
0.110000 0.000000 0.000000 3
0.120000 0.000000 0.000000 3
0.130000 0.000000 0.000000 3
0.140000 0.000000 0.000000 3
0.150000 0.000000 0.000000 3
0.160000 0.000000 0.000000 3
0.170000 0.000000 0.000000 3
0.180000 0.000000 0.000000 3
0.190000 0.000000 0.000000 3
0.200000 0.000000 0.000000 3
0.210000 0.000000 0.000000 3
0.220000 0.000000 0.000000 3
0.230000 0.000000 0.000000 3
0.240000 0.000000 0.000000 3
0.250000 0.000000 0.000000 3
0.260000 0.000000 0.000000 3
0.270000 0.000000 0.000000 3
0.280000 0.000000 0.000000 3
0.290000 0.000000 0.000000 3
0.300000 0.000000 0.000000 3
0.310000 0.000000 0.000000 3
0.320000 0.000000 0.000000 3
0.330000 0.000000 0.000000 3
0.340000 0.000000 0.000000 3
0.350000 0.000000 0.000000 3
0.360000 0.000000 0.000000 3
0.370000 0.000000 0.000000 3
0.380000 0.000000 0.000000 3
0.390000 0.000000 0.000000 3
0.400000 0.000000 0.000000 3
0.410000 0.000000 0.000000 3
0.420000 0.000000 0.000000 3
0.430000 0.000000 0.000000 3
0.440000 0.000000 0.000000 3
0.450000 0.000000 0.000000 3
0.460000 0.000000 0.000000 3
0.470000 0.000000 0.000000 3
0.480000 0.000000 0.000000 3
0.490000 0.000000 0.000000 3
0.500000 0.000000 0.000000 3
0.510000 0.000000 0.000000 3
0.520000 0.000000 0.000000 3
0.530000 0.000000 0.000000 3
0.540000 0.000000 0.000000 3
0.550000 0.000000 0.000000 3
0.560000 0.000000 0.000000 3
0.570000 0.000000 0.000000 3
0.580000 0.000000 0.000000 3
0.590000 0.000000 0.000000 3
0.600000 0.000000 0.000000 3
0.610000 0.000000 0.000000 3
0.620000 0.000000 0.000000 3
0.630000 0.000000 0.000000 3
0.640000 0.000000 0.000000 3
0.650000 0.000000 0.000000 3
0.660000 0.000000 0.000000 3
0.670000 0.000000 0.000000 3
0.680000 0.000000 0.000000 3
0.690000 0.000000 0.000000 3
0.700000 0.000000 0.000000 3
0.710000 0.000000 0.000000 3
0.720000 0.000000 0.000000 3
0.730000 0.000000 0.000000 3
0.740000 0.000000 0.000000 3
0.750000 0.000000 0.000000 3
0.760000 0.000000 0.000000 3
0.770000 0.000000 0.000000 3
0.780000 0.000000 0.000000 3
0.790000 0.000000 0.000000 3
0.800000 0.000000 0.000000 3
0.810000 0.000000 0.000000 3
0.820000 0.000000 0.000000 3
0.830000 0.000000 0.000000 3
0.840000 0.000000 0.000000 3
0.850000 0.000000 0.000000 3
0.860000 0.000000 0.000000 3
0.870000 0.000000 0.000000 3
0.880000 0.000000 0.000000 3
0.890000 0.000000 0.000000 3
0.900000 0.000000 0.000000 3
0.910000 0.000000 0.000000 3
0.920000 0.000000 0.000000 3
0.930000 0.000000 0.000000 3
0.940000 0.000000 0.000000 3
0.950000 0.000000 0.000000 3
0.960000 0.000000 0.000000 3
0.970000 0.000000 0.000000 3
0.980000 0.000000 0.000000 3
0.990000 0.000000 0.000000 3
1.000000 0.000000 0.000000 3
1.010000 0.000000 0.000000 3
1.020000 0.000000 0.000000 3
1.030000 0.000000 0.000000 3
1.040000 0.000000 0.000000 3
1.050000 0.000000 0.000000 3
1.060000 0.000000 0.000000 3
1.070000 0.000000 0.000000 3
1.080000 0.000000 0.000000 3
1.090000 0.000000 0.000000 3
1.100000 0.000000 0.000000 3
1.110000 0.000000 0.000000 3
1.120000 0.000000 0.000000 3
1.130000 0.000000 0.000000 3
1.140000 0.000000 0.000000 3
1.150000 0.000000 0.000000 3
1.160000 0.000000 0.000000 3
1.170000 0.000000 0.000000 3
1.180000 0.000000 0.000000 3
1.190000 0.000000 0.000000 3
1.200000 0.000000 0.000000 3
1.210000 0.000000 0.000000 3
1.220000 0.000000 0.000000 3
1.230000 0.000000 0.000000 3
1.240000 0.000000 0.000000 3
1.250000 0.000000 0.000000 3
1.260000 0.000000 0.000000 3
1.270000 0.000000 0.000000 3
1.280000 0.000000 0.000000 3
1.290000 0.000000 0.000000 3
1.300000 0.000000 0.000000 3
1.310000 0.000000 0.000000 3
1.320000 0.000000 0.000000 3
1.330000 0.000000 0.000000 3
1.340000 0.000000 0.000000 3
1.350000 0.000000 0.000000 3
1.360000 0.000000 0.000000 3
1.370000 0.000000 0.000000 3
1.380000 0.000000 0.000000 3
1.390000 0.000000 0.000000 3
1.400000 0.000000 0.000000 3
1.410000 0.000000 0.000000 3
1.420000 0.000000 0.000000 3
1.430000 0.000000 0.000000 3
1.440000 0.000000 0.000000 3
1.450000 0.000000 0.000000 3
1.460000 0.000000 0.000000 3
1.470000 0.000000 0.000000 3
1.480000 0.000000 0.000000 3
1.490000 0.000000 0.000000 3
1.500000 0.000000 0.000000 3
0.000000 0.000000 0.000000 4
0.010000 0.000016 0.000000 4
0.020000 0.000062 0.000000 4
0.030000 0.000140 0.000000 4
0.039999 0.000248 0.000000 4
0.049998 0.000388 0.000000 4
0.059997 0.000558 0.000000 4
0.069996 0.000760 0.000000 4
0.079994 0.000993 0.000000 4
0.089991 0.001257 0.000000 4
0.099988 0.001551 0.000000 4
0.109984 0.001877 0.000000 4
0.119979 0.002234 0.000000 4
0.129974 0.002622 0.000000 4
0.139967 0.003041 0.000000 4
0.149959 0.003490 0.000000 4
0.159951 0.003971 0.000000 4
0.169941 0.004483 0.000000 4
0.179930 0.005026 0.000000 4
0.189917 0.005600 0.000000 4
0.199904 0.006205 0.000000 4
0.209889 0.006840 0.000000 4
0.219872 0.007507 0.000000 4
0.229854 0.008205 0.000000 4
0.239834 0.008934 0.000000 4
0.249812 0.009694 0.000000 4
0.259789 0.010485 0.000000 4
0.269763 0.011306 0.000000 4
0.279736 0.012159 0.000000 4
0.289707 0.013043 0.000000 4
0.299675 0.013958 0.000000 4
0.309642 0.014903 0.000000 4
0.319606 0.015880 0.000000 4
0.329568 0.016887 0.000000 4
0.339527 0.017926 0.000000 4
0.349484 0.018995 0.000000 4
0.359439 0.020096 0.000000 4
0.369391 0.021227 0.000000 4
0.379340 0.022389 0.000000 4
0.389286 0.023582 0.000000 4
0.399230 0.024807 0.000000 4
0.409171 0.026062 0.000000 4
0.419109 0.027347 0.000000 4
0.429044 0.028664 0.000000 4
0.438975 0.030012 0.000000 4
0.448904 0.031390 0.000000 4
0.458829 0.032800 0.000000 4
0.468751 0.034240 0.000000 4
0.478670 0.035711 0.000000 4
0.488585 0.037213 0.000000 4
0.498496 0.038746 0.000000 4
0.508404 0.040310 0.000000 4
0.518309 0.041904 0.000000 4
0.528209 0.043530 0.000000 4
0.538106 0.045186 0.000000 4
0.547999 0.046873 0.000000 4
0.557888 0.048591 0.000000 4
0.567773 0.050339 0.000000 4
0.577654 0.052119 0.000000 4
0.587530 0.053929 0.000000 4
0.597402 0.055770 0.000000 4
0.607270 0.057642 0.000000 4
0.617134 0.059544 0.000000 4
0.626993 0.061477 0.000000 4
0.636848 0.063441 0.000000 4
0.646698 0.065436 0.000000 4
0.656543 0.067461 0.000000 4
0.666384 0.069517 0.000000 4
0.676220 0.071604 0.000000 4
0.686050 0.073721 0.000000 4
0.695876 0.075869 0.000000 4
0.705697 0.078048 0.000000 4
0.715513 0.080258 0.000000 4
0.725323 0.082498 0.000000 4
0.735129 0.084768 0.000000 4
0.744929 0.087070 0.000000 4
0.754723 0.089402 0.000000 4
0.764512 0.091764 0.000000 4
0.774296 0.094157 0.000000 4
0.784074 0.096581 0.000000 4
0.793846 0.099035 0.000000 4
0.803613 0.101520 0.000000 4
0.813374 0.104035 0.000000 4
0.823128 0.106581 0.000000 4
0.832877 0.109157 0.000000 4
0.842620 0.111764 0.000000 4
0.852357 0.114402 0.000000 4
0.862087 0.117070 0.000000 4
0.871812 0.119768 0.000000 4
0.881530 0.122497 0.000000 4
0.891241 0.125256 0.000000 4
0.900946 0.128045 0.000000 4
0.910645 0.130865 0.000000 4
0.920337 0.133716 0.000000 4
0.930022 0.136597 0.000000 4
0.939701 0.139508 0.000000 4
0.949373 0.142449 0.000000 4
0.959037 0.145421 0.000000 4
0.968695 0.148423 0.000000 4
0.978346 0.151456 0.000000 4
0.987990 0.154519 0.000000 4
0.997626 0.157612 0.000000 4
1.007256 0.160735 0.000000 4
1.016878 0.163889 0.000000 4
1.026492 0.167073 0.000000 4
1.036100 0.170287 0.000000 4
1.045699 0.173531 0.000000 4
1.055291 0.176806 0.000000 4
1.064876 0.180110 0.000000 4
1.074452 0.183445 0.000000 4
1.084021 0.186810 0.000000 4
1.093582 0.190205 0.000000 4
1.103135 0.193630 0.000000 4
1.112680 0.197086 0.000000 4
1.122217 0.200571 0.000000 4
1.131746 0.204086 0.000000 4
1.141266 0.207632 0.000000 4
1.150779 0.211207 0.000000 4
1.160282 0.214813 0.000000 4
1.169778 0.218448 0.000000 4
1.179265 0.222114 0.000000 4
1.188743 0.225809 0.000000 4
1.198213 0.229535 0.000000 4
1.207674 0.233290 0.000000 4
1.217126 0.237075 0.000000 4
1.226569 0.240890 0.000000 4
1.236003 0.244735 0.000000 4
1.245429 0.248610 0.000000 4
1.254845 0.252515 0.000000 4
1.264252 0.256449 0.000000 4
1.273650 0.260413 0.000000 4
1.283039 0.264407 0.000000 4
1.292418 0.268431 0.000000 4
1.301788 0.272485 0.000000 4
1.311148 0.276568 0.000000 4
1.320499 0.280681 0.000000 4
1.329840 0.284823 0.000000 4
1.339172 0.288996 0.000000 4
1.348494 0.293197 0.000000 4
1.357806 0.297429 0.000000 4
1.367108 0.301690 0.000000 4
1.376400 0.305981 0.000000 4
1.385682 0.310301 0.000000 4
1.394953 0.314651 0.000000 4
1.404215 0.319030 0.000000 4
1.413466 0.323439 0.000000 4
1.422708 0.327877 0.000000 4
1.431938 0.332344 0.000000 4
1.441158 0.336841 0.000000 4
1.450368 0.341368 0.000000 4
1.459567 0.345924 0.000000 4
0.000000 0.000000 0.000000 5
0.010000 0.000031 0.000000 5
0.020000 0.000124 0.000000 5
0.029999 0.000279 0.000000 5
0.039997 0.000496 0.000000 5
0.049994 0.000776 0.000000 5
0.059990 0.001117 0.000000 5
0.069983 0.001520 0.000000 5
0.079975 0.001986 0.000000 5
0.089965 0.002513 0.000000 5
0.099952 0.003102 0.000000 5
0.109936 0.003754 0.000000 5
0.119917 0.004467 0.000000 5
0.129894 0.005242 0.000000 5
0.139868 0.006080 0.000000 5
0.149838 0.006979 0.000000 5
0.159803 0.007940 0.000000 5
0.169764 0.008963 0.000000 5
0.179719 0.010048 0.000000 5
0.189670 0.011195 0.000000 5
0.199615 0.012403 0.000000 5
0.209554 0.013674 0.000000 5
0.219488 0.015006 0.000000 5
0.229415 0.016400 0.000000 5
0.239335 0.017856 0.000000 5
0.249248 0.019373 0.000000 5
0.259154 0.020952 0.000000 5
0.269053 0.022593 0.000000 5
0.278944 0.024295 0.000000 5
0.288827 0.026059 0.000000 5
0.298701 0.027885 0.000000 5
0.308567 0.029772 0.000000 5
0.318424 0.031721 0.000000 5
0.328272 0.033731 0.000000 5
0.338110 0.035802 0.000000 5
0.347938 0.037935 0.000000 5
0.357756 0.040129 0.000000 5
0.367564 0.042384 0.000000 5
0.377362 0.044701 0.000000 5
0.387148 0.047079 0.000000 5
0.396923 0.049518 0.000000 5
0.406687 0.052018 0.000000 5
0.416439 0.054579 0.000000 5
0.426178 0.057201 0.000000 5
0.435906 0.059884 0.000000 5
0.445621 0.062628 0.000000 5
0.455322 0.065433 0.000000 5
0.465011 0.068298 0.000000 5
0.474686 0.071225 0.000000 5
0.484348 0.074212 0.000000 5
0.493995 0.077259 0.000000 5
0.503628 0.080368 0.000000 5
0.513246 0.083536 0.000000 5
0.522850 0.086766 0.000000 5
0.532438 0.090055 0.000000 5
0.542011 0.093405 0.000000 5
0.551568 0.096815 0.000000 5
0.561109 0.100285 0.000000 5
0.570633 0.103816 0.000000 5
0.580141 0.107406 0.000000 5
0.589632 0.111057 0.000000 5
0.599106 0.114767 0.000000 5
0.608563 0.118538 0.000000 5
0.618002 0.122368 0.000000 5
0.627423 0.126257 0.000000 5
0.636825 0.130207 0.000000 5
0.646209 0.134216 0.000000 5
0.655574 0.138284 0.000000 5
0.664920 0.142412 0.000000 5
0.674247 0.146599 0.000000 5
0.683554 0.150845 0.000000 5
0.692841 0.155150 0.000000 5
0.702108 0.159515 0.000000 5
0.711354 0.163938 0.000000 5
0.720579 0.168421 0.000000 5
0.729784 0.172962 0.000000 5
0.738967 0.177562 0.000000 5
0.748128 0.182220 0.000000 5
0.757268 0.186937 0.000000 5
0.766385 0.191713 0.000000 5
0.775480 0.196547 0.000000 5
0.784552 0.201439 0.000000 5
0.793602 0.206389 0.000000 5
0.802628 0.211397 0.000000 5
0.811630 0.216464 0.000000 5
0.820609 0.221588 0.000000 5
0.829563 0.226770 0.000000 5
0.838494 0.232010 0.000000 5
0.847399 0.237307 0.000000 5
0.856280 0.242662 0.000000 5
0.865136 0.248074 0.000000 5
0.873966 0.253543 0.000000 5
0.882770 0.259069 0.000000 5
0.891549 0.264653 0.000000 5
0.900301 0.270293 0.000000 5
0.909026 0.275991 0.000000 5
0.917725 0.281745 0.000000 5
0.926397 0.287556 0.000000 5
0.935042 0.293423 0.000000 5
0.943659 0.299346 0.000000 5
0.952248 0.305326 0.000000 5
0.960809 0.311362 0.000000 5
0.969342 0.317454 0.000000 5
0.977846 0.323602 0.000000 5
0.986321 0.329806 0.000000 5
0.994766 0.336065 0.000000 5
1.003183 0.342380 0.000000 5
1.011570 0.348750 0.000000 5
1.019926 0.355176 0.000000 5
1.028253 0.361657 0.000000 5
1.036549 0.368193 0.000000 5
1.044814 0.374784 0.000000 5
1.053049 0.381429 0.000000 5
1.061252 0.388130 0.000000 5
1.069423 0.394885 0.000000 5
1.077563 0.401694 0.000000 5
1.085671 0.408557 0.000000 5
1.093746 0.415475 0.000000 5
1.101789 0.422447 0.000000 5
1.109799 0.429472 0.000000 5
1.117776 0.436552 0.000000 5
1.125719 0.443685 0.000000 5
1.133629 0.450871 0.000000 5
1.141505 0.458111 0.000000 5
1.149347 0.465404 0.000000 5
1.157155 0.472750 0.000000 5
1.164928 0.480149 0.000000 5
1.172666 0.487600 0.000000 5
1.180369 0.495104 0.000000 5
1.188037 0.502661 0.000000 5
1.195669 0.510270 0.000000 5
1.203265 0.517931 0.000000 5
1.210825 0.525644 0.000000 5
1.218349 0.533409 0.000000 5
1.225836 0.541226 0.000000 5
1.233286 0.549094 0.000000 5
1.240699 0.557014 0.000000 5
1.248075 0.564985 0.000000 5
1.255413 0.573007 0.000000 5
1.262714 0.581080 0.000000 5
1.269976 0.589204 0.000000 5
1.277200 0.597378 0.000000 5
1.284385 0.605603 0.000000 5
1.291531 0.613878 0.000000 5
1.298639 0.622203 0.000000 5
1.305707 0.630579 0.000000 5
1.312735 0.639004 0.000000 5
1.319724 0.647478 0.000000 5
1.326673 0.656003 0.000000 5
1.333581 0.664576 0.000000 5
1.340449 0.673199 0.000000 5
0.000000 0.000000 0.000000 6
0.010000 0.000047 0.000000 6
0.019999 0.000186 0.000000 6
0.029997 0.000419 0.000000 6
0.039993 0.000745 0.000000 6
0.049986 0.001163 0.000000 6
0.059977 0.001675 0.000000 6
0.069963 0.002280 0.000000 6
0.079945 0.002978 0.000000 6
0.089921 0.003769 0.000000 6
0.099892 0.004653 0.000000 6
0.109856 0.005629 0.000000 6
0.119813 0.006699 0.000000 6
0.129762 0.007861 0.000000 6
0.139703 0.009116 0.000000 6
0.149635 0.010463 0.000000 6
0.159557 0.011904 0.000000 6
0.169468 0.013437 0.000000 6
0.179369 0.015062 0.000000 6
0.189258 0.016780 0.000000 6
0.199134 0.018590 0.000000 6
0.208998 0.020492 0.000000 6
0.218848 0.022487 0.000000 6
0.228683 0.024574 0.000000 6
0.238504 0.026753 0.000000 6
0.248310 0.029023 0.000000 6
0.258099 0.031386 0.000000 6
0.267871 0.033840 0.000000 6
0.277626 0.036386 0.000000 6
0.287362 0.039023 0.000000 6
0.297080 0.041752 0.000000 6
0.306779 0.044572 0.000000 6
0.316458 0.047483 0.000000 6
0.326115 0.050485 0.000000 6
0.335752 0.053578 0.000000 6
0.345367 0.056762 0.000000 6
0.354959 0.060037 0.000000 6
0.364527 0.063402 0.000000 6
0.374072 0.066857 0.000000 6
0.383593 0.070402 0.000000 6
0.393088 0.074038 0.000000 6
0.402558 0.077763 0.000000 6
0.412001 0.081578 0.000000 6
0.421417 0.085483 0.000000 6
0.430806 0.089477 0.000000 6
0.440166 0.093560 0.000000 6
0.449498 0.097732 0.000000 6
0.458800 0.101994 0.000000 6
0.468072 0.106343 0.000000 6
0.477313 0.110781 0.000000 6
0.486522 0.115308 0.000000 6
0.495700 0.119922 0.000000 6
0.504845 0.124625 0.000000 6
0.513957 0.129415 0.000000 6
0.523035 0.134293 0.000000 6
0.532078 0.139257 0.000000 6
0.541087 0.144309 0.000000 6
0.550059 0.149448 0.000000 6
0.558996 0.154673 0.000000 6
0.567895 0.159985 0.000000 6
0.576757 0.165382 0.000000 6
0.585581 0.170866 0.000000 6
0.594366 0.176435 0.000000 6
0.603111 0.182090 0.000000 6
0.611817 0.187830 0.000000 6
0.620482 0.193655 0.000000 6
0.629106 0.199564 0.000000 6
0.637688 0.205558 0.000000 6
0.646228 0.211636 0.000000 6
0.654724 0.217798 0.000000 6
0.663178 0.224043 0.000000 6
0.671587 0.230372 0.000000 6
0.679951 0.236784 0.000000 6
0.688270 0.243279 0.000000 6
0.696543 0.249856 0.000000 6
0.704769 0.256515 0.000000 6
0.712949 0.263256 0.000000 6
0.721081 0.270079 0.000000 6
0.729164 0.276983 0.000000 6
0.737199 0.283969 0.000000 6
0.745184 0.291035 0.000000 6
0.753119 0.298181 0.000000 6
0.761004 0.305407 0.000000 6
0.768837 0.312713 0.000000 6
0.776619 0.320099 0.000000 6
0.784348 0.327564 0.000000 6
0.792025 0.335107 0.000000 6
0.799648 0.342729 0.000000 6
0.807217 0.350430 0.000000 6
0.814731 0.358208 0.000000 6
0.822191 0.366063 0.000000 6
0.829595 0.373995 0.000000 6
0.836942 0.382005 0.000000 6
0.844233 0.390090 0.000000 6
0.851467 0.398252 0.000000 6
0.858642 0.406490 0.000000 6
0.865759 0.414802 0.000000 6
0.872817 0.423190 0.000000 6
0.879816 0.431652 0.000000 6
0.886755 0.440189 0.000000 6
0.893633 0.448799 0.000000 6
0.900450 0.457483 0.000000 6
0.907205 0.466240 0.000000 6
0.913898 0.475069 0.000000 6
0.920528 0.483971 0.000000 6
0.927095 0.492945 0.000000 6
0.933598 0.501990 0.000000 6
0.940037 0.511107 0.000000 6
0.946411 0.520294 0.000000 6
0.952720 0.529551 0.000000 6
0.958963 0.538879 0.000000 6
0.965139 0.548275 0.000000 6
0.971249 0.557741 0.000000 6
0.977291 0.567276 0.000000 6
0.983266 0.576878 0.000000 6
0.989172 0.586549 0.000000 6
0.995009 0.596287 0.000000 6
1.000776 0.606092 0.000000 6
1.006474 0.615963 0.000000 6
1.012101 0.625900 0.000000 6
1.017658 0.635903 0.000000 6
1.023143 0.645971 0.000000 6
1.028556 0.656104 0.000000 6
1.033897 0.666301 0.000000 6
1.039165 0.676562 0.000000 6
1.044360 0.686886 0.000000 6
1.049481 0.697273 0.000000 6
1.054528 0.707723 0.000000 6
1.059500 0.718234 0.000000 6
1.064396 0.728807 0.000000 6
1.069218 0.739441 0.000000 6
1.073963 0.750136 0.000000 6
1.078631 0.760891 0.000000 6
1.083223 0.771705 0.000000 6
1.087737 0.782578 0.000000 6
1.092173 0.793510 0.000000 6
1.096531 0.804500 0.000000 6
1.100810 0.815548 0.000000 6
1.105009 0.826653 0.000000 6
1.109129 0.837814 0.000000 6
1.113169 0.849032 0.000000 6
1.117128 0.860305 0.000000 6
1.121007 0.871633 0.000000 6
1.124804 0.883016 0.000000 6
1.128519 0.894453 0.000000 6
1.132151 0.905943 0.000000 6
1.135701 0.917487 0.000000 6
1.139168 0.929083 0.000000 6
1.142552 0.940731 0.000000 6
1.145851 0.952431 0.000000 6
1.149067 0.964181 0.000000 6
