ply
format ascii 1.0
element vertex 343
property float end_x
property float end_y
property float end_z
property int path_id
property int group_id
end_header
5.531280 -2.324852 0.000000 0 0
5.592110 -2.174466 0.000000 1 0
5.648853 -2.022489 0.000000 2 0
5.701466 -1.869035 0.000000 3 0
5.749911 -1.714214 0.000000 4 0
5.794152 -1.558140 0.000000 5 0
5.834158 -1.400927 0.000000 6 0
5.623175 -2.092823 0.000000 7 0
5.677698 -1.940037 0.000000 8 0
5.728072 -1.785832 0.000000 9 0
5.774257 -1.630322 0.000000 10 0
5.816222 -1.473621 0.000000 11 0
5.853935 -1.315842 0.000000 12 0
5.887369 -1.157101 0.000000 13 0
5.705340 -1.857173 0.000000 14 0
5.753463 -1.702251 0.000000 15 0
5.797380 -1.546085 0.000000 16 0
5.837059 -1.388790 0.000000 17 0
5.872472 -1.230478 0.000000 18 0
5.903591 -1.071268 0.000000 19 0
5.930395 -0.911274 0.000000 20 0
5.777636 -1.618309 0.000000 21 0
5.819275 -1.461521 0.000000 22 0
5.856659 -1.303664 0.000000 23 0
5.889763 -1.144854 0.000000 24 0
5.918561 -0.985207 0.000000 25 0
5.943033 -0.824840 0.000000 26 0
5.963160 -0.663870 0.000000 27 0
5.839935 -1.376646 0.000000 28 0
5.875018 -1.218262 0.000000 29 0
5.905806 -1.058987 0.000000 30 0
5.932277 -0.898938 0.000000 31 0
5.954411 -0.738231 0.000000 32 0
5.972193 -0.576986 0.000000 33 0
5.985609 -0.415318 0.000000 34 0
5.892131 -1.132602 0.000000 35 0
5.920597 -0.972895 0.000000 36 0
5.944735 -0.812478 0.000000 37 0
5.964528 -0.651466 0.000000 38 0
5.979960 -0.489979 0.000000 39 0
5.991021 -0.328133 0.000000 40 0
5.997702 -0.166047 0.000000 41 0
5.934134 -0.886598 0.000000 42 0
5.955934 -0.725846 0.000000 43 0
5.973380 -0.564563 0.000000 44 0
5.986460 -0.402868 0.000000 45 0
5.995163 -0.240878 0.000000 46 0
5.999484 -0.078712 0.000000 47 0
5.999419 0.083511 0.000000 48 0
5.668636 -1.966358 0.000000 49 1
5.719724 -1.812389 0.000000 50 1
5.766631 -1.657095 0.000000 51 1
5.809323 -1.500590 0.000000 52 1
5.847767 -1.342988 0.000000 53 1
5.881937 -1.184404 0.000000 54 1
5.911808 -1.024954 0.000000 55 1
5.745504 -1.728927 0.000000 56 1
5.790145 -1.572967 0.000000 57 1
5.830553 -1.415857 0.000000 58 1
5.866699 -1.257711 0.000000 59 1
5.898557 -1.098647 0.000000 60 1
5.926103 -0.938779 0.000000 61 1
5.949316 -0.778225 0.000000 62 1
5.812431 -1.488504 0.000000 63 1
5.850548 -1.330823 0.000000 64 1
5.884388 -1.172168 0.000000 65 1
5.913926 -1.012657 0.000000 66 1
5.939142 -0.852405 0.000000 67 1
5.960016 -0.691530 0.000000 68 1
5.976533 -0.530150 0.000000 69 1
5.869303 -1.245507 0.000000 70 1
5.900829 -1.086376 0.000000 71 1
5.928042 -0.926452 0.000000 72 1
5.950922 -0.765850 0.000000 73 1
5.969452 -0.604688 0.000000 74 1
5.983617 -0.443084 0.000000 75 1
5.993409 -0.281157 0.000000 76 1
5.916020 -1.000354 0.000000 77 1
5.940902 -0.840051 0.000000 78 1
5.961441 -0.679133 0.000000 79 1
5.977622 -0.517718 0.000000 80 1
5.989434 -0.355925 0.000000 81 1
5.996867 -0.193872 0.000000 82 1
5.999916 -0.031678 0.000000 83 1
5.952502 -0.753471 0.000000 84 1
5.970696 -0.592271 0.000000 85 1
5.984526 -0.430638 0.000000 86 1
5.993981 -0.268691 0.000000 87 1
5.999054 -0.106547 0.000000 88 1
5.999742 0.055675 0.000000 89 1
5.996044 0.217856 0.000000 90 1
5.978686 -0.505285 0.000000 91 1
5.990161 -0.343467 0.000000 92 1
5.997257 -0.181399 0.000000 93 1
5.999969 -0.019199 0.000000 94 1
5.998295 0.143016 0.000000 95 1
5.992236 0.305126 0.000000 96 1
5.981797 0.467014 0.000000 97 1
5.782784 -1.599814 0.000000 98 2
5.823921 -1.442893 0.000000 99 2
5.860801 -1.284917 0.000000 100 2
5.893396 -1.126002 0.000000 101 2
5.921683 -0.966264 0.000000 102 2
5.945642 -0.805820 0.000000 103 2
5.965254 -0.644786 0.000000 104 2
5.844310 -1.357953 0.000000 105 2
5.878886 -1.199457 0.000000 106 2
5.909164 -1.040084 0.000000 107 2
5.935123 -0.879951 0.000000 108 2
5.956743 -0.719175 0.000000 109 2
5.974009 -0.557873 0.000000 110 2
5.986907 -0.396163 0.000000 111 2
5.895725 -1.113742 0.000000 112 2
5.923680 -0.953946 0.000000 113 2
5.947305 -0.793452 0.000000 114 2
5.966582 -0.632378 0.000000 115 2
5.981497 -0.470842 0.000000 116 2
5.992040 -0.308961 0.000000 117 2
5.998203 -0.146855 0.000000 118 2
5.936940 -0.867605 0.000000 119 2
5.958226 -0.706784 0.000000 120 2
5.975156 -0.545447 0.000000 121 2
5.987718 -0.383710 0.000000 122 2
5.995903 -0.221694 0.000000 123 2
5.999705 -0.059515 0.000000 124 2
5.999121 0.102708 0.000000 125 2
5.967884 -0.619967 0.000000 126 2
5.982463 -0.458400 0.000000 127 2
5.992670 -0.296498 0.000000 128 2
5.998495 -0.134379 0.000000 129 2
5.999935 0.027838 0.000000 130 2
5.996990 0.190035 0.000000 131 2
5.989660 0.352092 0.000000 132 2
5.988503 -0.371256 0.000000 133 2
5.996351 -0.209223 0.000000 134 2
5.999816 -0.047036 0.000000 135 2
5.998894 0.115185 0.000000 136 2
5.993588 0.277321 0.000000 137 2
5.983900 0.439255 0.000000 138 2
5.969837 0.600868 0.000000 139 2
5.998762 -0.121903 0.000000 140 2
5.999865 0.040317 0.000000 141 2
5.996582 0.202507 0.000000 142 2
5.988915 0.364549 0.000000 143 2
5.976871 0.526325 0.000000 144 2
5.960457 0.687716 0.000000 145 2
5.939686 0.848604 0.000000 146 2
5.873258 -1.226720 0.000000 147 3
5.904275 -1.067490 0.000000 148 3
5.930977 -0.907479 0.000000 149 3
5.953342 -0.746804 0.000000 150 3
5.971356 -0.585584 0.000000 151 3
5.985004 -0.423936 0.000000 152 3
5.994278 -0.261978 0.000000 153 3
5.919190 -0.981419 0.000000 154 3
5.943559 -0.821037 0.000000 155 3
5.963584 -0.660054 0.000000 156 3
5.979248 -0.498589 0.000000 157 3
5.990542 -0.336759 0.000000 158 3
5.997457 -0.174683 0.000000 159 3
5.999987 -0.012479 0.000000 160 3
5.954883 -0.734421 0.000000 161 3
5.972561 -0.573163 0.000000 162 3
5.985873 -0.411487 0.000000 163 3
5.994810 -0.249510 0.000000 164 3
5.999364 -0.087351 0.000000 165 3
5.999533 0.074873 0.000000 166 3
5.995316 0.237041 0.000000 167 3
5.980272 -0.486152 0.000000 168 3
5.991229 -0.324299 0.000000 169 3
5.997807 -0.162209 0.000000 170 3
6.000000 -0.000000 0.000000 171 3
5.997807 0.162209 0.000000 172 3
5.991229 0.324299 0.000000 173 3
5.980272 0.486152 0.000000 174 3
5.995316 -0.237041 0.000000 175 3
5.999533 -0.074873 0.000000 176 3
5.999364 0.087351 0.000000 177 3
5.994810 0.249510 0.000000 178 3
5.985873 0.411487 0.000000 179 3
5.972561 0.573163 0.000000 180 3
5.954883 0.734421 0.000000 181 3
5.999987 0.012479 0.000000 182 3
5.997457 0.174683 0.000000 183 3
5.990542 0.336759 0.000000 184 3
5.979248 0.498589 0.000000 185 3
5.963584 0.660054 0.000000 186 3
5.943559 0.821037 0.000000 187 3
5.919190 0.981419 0.000000 188 3
5.994278 0.261978 0.000000 189 3
5.985004 0.423936 0.000000 190 3
5.971356 0.585584 0.000000 191 3
5.953342 0.746804 0.000000 192 3
5.930977 0.907479 0.000000 193 3
5.904275 1.067490 0.000000 194 3
5.873258 1.226720 0.000000 195 3
5.939686 -0.848604 0.000000 196 4
5.960457 -0.687716 0.000000 197 4
5.976871 -0.526325 0.000000 198 4
5.988915 -0.364549 0.000000 199 4
5.996582 -0.202507 0.000000 200 4
5.999865 -0.040317 0.000000 201 4
5.998762 0.121903 0.000000 202 4
5.969837 -0.600868 0.000000 203 4
5.983900 -0.439255 0.000000 204 4
5.993588 -0.277321 0.000000 205 4
5.998894 -0.115185 0.000000 206 4
5.999816 0.047036 0.000000 207 4
5.996351 0.209223 0.000000 208 4
5.988503 0.371256 0.000000 209 4
5.989660 -0.352092 0.000000 210 4
5.996990 -0.190035 0.000000 211 4
5.999935 -0.027838 0.000000 212 4
5.998495 0.134379 0.000000 213 4
5.992670 0.296498 0.000000 214 4
5.982463 0.458400 0.000000 215 4
5.967884 0.619967 0.000000 216 4
5.999121 -0.102708 0.000000 217 4
5.999705 0.059515 0.000000 218 4
5.995903 0.221694 0.000000 219 4
5.987718 0.383710 0.000000 220 4
5.975156 0.545447 0.000000 221 4
5.958226 0.706784 0.000000 222 4
5.936940 0.867605 0.000000 223 4
5.998203 0.146855 0.000000 224 4
5.992040 0.308961 0.000000 225 4
5.981497 0.470842 0.000000 226 4
5.966582 0.632378 0.000000 227 4
5.947305 0.793452 0.000000 228 4
5.923680 0.953946 0.000000 229 4
5.895725 1.113742 0.000000 230 4
5.986907 0.396163 0.000000 231 4
5.974009 0.557873 0.000000 232 4
5.956743 0.719175 0.000000 233 4
5.935123 0.879951 0.000000 234 4
5.909164 1.040084 0.000000 235 4
5.878886 1.199457 0.000000 236 4
5.844310 1.357953 0.000000 237 4
5.965254 0.644786 0.000000 238 4
5.945642 0.805820 0.000000 239 4
5.921683 0.966264 0.000000 240 4
5.893396 1.126002 0.000000 241 4
5.860801 1.284917 0.000000 242 4
5.823921 1.442893 0.000000 243 4
5.782784 1.599814 0.000000 244 4
5.981797 -0.467014 0.000000 245 5
5.992236 -0.305126 0.000000 246 5
5.998295 -0.143016 0.000000 247 5
5.999969 0.019199 0.000000 248 5
5.997257 0.181399 0.000000 249 5
5.990161 0.343467 0.000000 250 5
5.978686 0.505285 0.000000 251 5
5.996044 -0.217856 0.000000 252 5
5.999742 -0.055675 0.000000 253 5
5.999054 0.106547 0.000000 254 5
5.993981 0.268691 0.000000 255 5
5.984526 0.430638 0.000000 256 5
5.970696 0.592271 0.000000 257 5
5.952502 0.753471 0.000000 258 5
5.999916 0.031678 0.000000 259 5
5.996867 0.193872 0.000000 260 5
5.989434 0.355925 0.000000 261 5
5.977622 0.517718 0.000000 262 5
5.961441 0.679133 0.000000 263 5
5.940902 0.840051 0.000000 264 5
5.916020 1.000354 0.000000 265 5
5.993409 0.281157 0.000000 266 5
5.983617 0.443084 0.000000 267 5
5.969452 0.604688 0.000000 268 5
5.950922 0.765850 0.000000 269 5
5.928042 0.926452 0.000000 270 5
5.900829 1.086376 0.000000 271 5
5.869303 1.245507 0.000000 272 5
5.976533 0.530150 0.000000 273 5
5.960016 0.691530 0.000000 274 5
5.939142 0.852405 0.000000 275 5
5.913926 1.012657 0.000000 276 5
5.884388 1.172168 0.000000 277 5
5.850548 1.330823 0.000000 278 5
5.812431 1.488504 0.000000 279 5
5.949316 0.778225 0.000000 280 5
5.926103 0.938779 0.000000 281 5
5.898557 1.098647 0.000000 282 5
5.866699 1.257711 0.000000 283 5
5.830553 1.415857 0.000000 284 5
5.790145 1.572967 0.000000 285 5
5.745504 1.728927 0.000000 286 5
5.911808 1.024954 0.000000 287 5
5.881937 1.184404 0.000000 288 5
5.847767 1.342988 0.000000 289 5
5.809323 1.500590 0.000000 290 5
5.766631 1.657095 0.000000 291 5
5.719724 1.812389 0.000000 292 5
5.668636 1.966358 0.000000 293 5
5.999419 -0.083511 0.000000 294 6
5.999484 0.078712 0.000000 295 6
5.995163 0.240878 0.000000 296 6
5.986460 0.402868 0.000000 297 6
5.973380 0.564563 0.000000 298 6
5.955934 0.725846 0.000000 299 6
5.934134 0.886598 0.000000 300 6
5.997702 0.166047 0.000000 301 6
5.991021 0.328133 0.000000 302 6
5.979960 0.489979 0.000000 303 6
5.964528 0.651466 0.000000 304 6
5.944735 0.812478 0.000000 305 6
5.920597 0.972895 0.000000 306 6
5.892131 1.132602 0.000000 307 6
5.985609 0.415318 0.000000 308 6
5.972193 0.576986 0.000000 309 6
5.954411 0.738231 0.000000 310 6
5.932277 0.898938 0.000000 311 6
5.905806 1.058987 0.000000 312 6
5.875018 1.218262 0.000000 313 6
5.839935 1.376646 0.000000 314 6
5.963160 0.663870 0.000000 315 6
5.943033 0.824840 0.000000 316 6
5.918561 0.985207 0.000000 317 6
5.889763 1.144854 0.000000 318 6
5.856659 1.303664 0.000000 319 6
5.819275 1.461521 0.000000 320 6
5.777636 1.618309 0.000000 321 6
5.930395 0.911274 0.000000 322 6
5.903591 1.071268 0.000000 323 6
5.872472 1.230478 0.000000 324 6
5.837059 1.388790 0.000000 325 6
5.797380 1.546085 0.000000 326 6
5.753463 1.702251 0.000000 327 6
5.705340 1.857173 0.000000 328 6
5.887369 1.157101 0.000000 329 6
5.853935 1.315842 0.000000 330 6
5.816222 1.473621 0.000000 331 6
5.774257 1.630322 0.000000 332 6
5.728072 1.785832 0.000000 333 6
5.677698 1.940037 0.000000 334 6
5.623175 2.092823 0.000000 335 6
5.834158 1.400927 0.000000 336 6
5.794152 1.558140 0.000000 337 6
5.749911 1.714214 0.000000 338 6
5.701466 1.869035 0.000000 339 6
5.648853 2.022489 0.000000 340 6
5.592110 2.174466 0.000000 341 6
5.531280 2.324852 0.000000 342 6
