ply
format ascii 1.0
element vertex 1407
property float x
property float y
property float z
property int group_id
end_header
0.000000 0.000000 0.000000 0
0.010000 -0.000010 0.000000 0
0.020000 -0.000038 0.000000 0
0.030000 -0.000086 0.000000 0
0.040000 -0.000154 0.000000 0
0.049999 -0.000240 0.000000 0
0.059999 -0.000346 0.000000 0
0.069998 -0.000470 0.000000 0
0.079998 -0.000614 0.000000 0
0.089997 -0.000778 0.000000 0
0.099995 -0.000960 0.000000 0
0.109994 -0.001161 0.000000 0
0.119992 -0.001382 0.000000 0
0.129990 -0.001622 0.000000 0
0.139987 -0.001881 0.000000 0
0.149984 -0.002160 0.000000 0
0.159981 -0.002457 0.000000 0
0.169977 -0.002774 0.000000 0
0.179973 -0.003110 0.000000 0
0.189968 -0.003465 0.000000 0
0.199963 -0.003839 0.000000 0
0.209957 -0.004233 0.000000 0
0.219951 -0.004646 0.000000 0
0.229944 -0.005078 0.000000 0
0.239936 -0.005529 0.000000 0
0.249928 -0.005999 0.000000 0
0.259919 -0.006488 0.000000 0
0.269909 -0.006997 0.000000 0
0.279899 -0.007525 0.000000 0
0.289888 -0.008072 0.000000 0
0.299876 -0.008638 0.000000 0
0.309863 -0.009224 0.000000 0
0.319849 -0.009828 0.000000 0
0.329834 -0.010452 0.000000 0
0.339819 -0.011095 0.000000 0
0.349802 -0.011757 0.000000 0
0.359785 -0.012438 0.000000 0
0.369767 -0.013139 0.000000 0
0.379747 -0.013858 0.000000 0
0.389727 -0.014597 0.000000 0
0.399705 -0.015355 0.000000 0
0.409682 -0.016132 0.000000 0
0.419659 -0.016929 0.000000 0
0.429634 -0.017744 0.000000 0
0.439608 -0.018579 0.000000 0
0.449580 -0.019433 0.000000 0
0.459552 -0.020306 0.000000 0
0.469522 -0.021198 0.000000 0
0.479491 -0.022109 0.000000 0
0.489458 -0.023039 0.000000 0
0.499424 -0.023989 0.000000 0
0.509389 -0.024958 0.000000 0
0.519352 -0.025946 0.000000 0
0.529314 -0.026953 0.000000 0
0.539275 -0.027979 0.000000 0
0.549234 -0.029024 0.000000 0
0.559191 -0.030089 0.000000 0
0.569147 -0.031173 0.000000 0
0.579101 -0.032275 0.000000 0
0.589054 -0.033397 0.000000 0
0.599005 -0.034538 0.000000 0
0.608955 -0.035699 0.000000 0
0.618902 -0.036878 0.000000 0
0.628848 -0.038076 0.000000 0
0.638793 -0.039294 0.000000 0
0.648735 -0.040531 0.000000 0
0.658676 -0.041787 0.000000 0
0.668615 -0.043062 0.000000 0
0.678552 -0.044356 0.000000 0
0.688487 -0.045669 0.000000 0
0.698420 -0.047001 0.000000 0
0.708352 -0.048353 0.000000 0
0.718281 -0.049723 0.000000 0
0.728208 -0.051113 0.000000 0
0.738134 -0.052522 0.000000 0
0.748057 -0.053949 0.000000 0
0.757978 -0.055396 0.000000 0
0.767898 -0.056863 0.000000 0
0.777815 -0.058348 0.000000 0
0.787729 -0.059852 0.000000 0
0.797642 -0.061375 0.000000 0
0.807553 -0.062918 0.000000 0
0.817461 -0.064479 0.000000 0
0.827367 -0.066060 0.000000 0
0.837271 -0.067659 0.000000 0
0.847172 -0.069278 0.000000 0
0.857071 -0.070916 0.000000 0
0.866968 -0.072573 0.000000 0
0.876862 -0.074249 0.000000 0
0.886754 -0.075944 0.000000 0
0.896643 -0.077658 0.000000 0
0.906530 -0.079391 0.000000 0
0.916415 -0.081143 0.000000 0
0.926297 -0.082914 0.000000 0
0.936176 -0.084704 0.000000 0
0.946053 -0.086514 0.000000 0
0.955927 -0.088342 0.000000 0
0.965798 -0.090189 0.000000 0
0.975667 -0.092056 0.000000 0
0.985533 -0.093941 0.000000 0
0.995396 -0.095846 0.000000 0
1.005257 -0.097769 0.000000 0
1.015115 -0.099712 0.000000 0
1.024970 -0.101673 0.000000 0
1.034822 -0.103654 0.000000 0
1.044671 -0.105653 0.000000 0
1.054517 -0.107672 0.000000 0
1.064361 -0.109709 0.000000 0
1.074201 -0.111766 0.000000 0
1.084039 -0.113841 0.000000 0
1.093873 -0.115936 0.000000 0
1.103705 -0.118049 0.000000 0
1.113533 -0.120182 0.000000 0
1.123359 -0.122333 0.000000 0
1.133181 -0.124504 0.000000 0
1.143000 -0.126693 0.000000 0
1.152816 -0.128902 0.000000 0
1.162629 -0.131129 0.000000 0
1.172438 -0.133375 0.000000 0
1.182244 -0.135640 0.000000 0
1.192047 -0.137925 0.000000 0
1.201847 -0.140228 0.000000 0
1.211643 -0.142550 0.000000 0
1.221436 -0.144891 0.000000 0
1.231226 -0.147251 0.000000 0
1.241012 -0.149630 0.000000 0
1.250795 -0.152027 0.000000 0
1.260574 -0.154444 0.000000 0
1.270350 -0.156880 0.000000 0
1.280122 -0.159334 0.000000 0
1.289891 -0.161808 0.000000 0
1.299656 -0.164300 0.000000 0
1.309417 -0.166811 0.000000 0
1.319175 -0.169341 0.000000 0
1.328930 -0.171890 0.000000 0
1.338680 -0.174458 0.000000 0
1.348427 -0.177045 0.000000 0
1.358170 -0.179651 0.000000 0
1.367909 -0.182275 0.000000 0
1.377645 -0.184918 0.000000 0
1.387376 -0.187581 0.000000 0
1.397104 -0.190262 0.000000 0
1.406828 -0.192962 0.000000 0
1.416548 -0.195680 0.000000 0
1.426264 -0.198418 0.000000 0
1.435977 -0.201174 0.000000 0
1.445685 -0.203950 0.000000 0
1.455389 -0.206744 0.000000 0
1.465089 -0.209557 0.000000 0
1.474785 -0.212388 0.000000 0
1.484477 -0.215239 0.000000 0
1.494165 -0.218108 0.000000 0
1.503849 -0.220996 0.000000 0
1.513528 -0.223903 0.000000 0
1.523203 -0.226829 0.000000 0
1.532874 -0.229773 0.000000 0
1.542541 -0.232737 0.000000 0
1.552204 -0.235719 0.000000 0
1.561862 -0.238720 0.000000 0
1.571516 -0.241739 0.000000 0
1.581165 -0.244777 0.000000 0
1.590811 -0.247834 0.000000 0
1.600451 -0.250910 0.000000 0
1.610087 -0.254005 0.000000 0
1.619719 -0.257118 0.000000 0
1.629346 -0.260250 0.000000 0
1.638969 -0.263401 0.000000 0
1.648587 -0.266570 0.000000 0
1.658201 -0.269758 0.000000 0
1.667810 -0.272965 0.000000 0
1.677414 -0.276190 0.000000 0
1.687014 -0.279435 0.000000 0
1.696609 -0.282697 0.000000 0
1.706199 -0.285979 0.000000 0
1.715785 -0.289279 0.000000 0
1.725366 -0.292598 0.000000 0
1.734942 -0.295936 0.000000 0
1.744513 -0.299292 0.000000 0
1.754079 -0.302667 0.000000 0
1.763640 -0.306060 0.000000 0
1.773197 -0.309472 0.000000 0
1.782748 -0.312903 0.000000 0
1.792295 -0.316353 0.000000 0
1.801837 -0.319820 0.000000 0
1.811373 -0.323307 0.000000 0
1.820905 -0.326812 0.000000 0
1.830431 -0.330336 0.000000 0
1.839952 -0.333878 0.000000 0
1.849469 -0.337439 0.000000 0
1.858980 -0.341019 0.000000 0
1.868486 -0.344617 0.000000 0
1.877986 -0.348234 0.000000 0
1.887482 -0.351869 0.000000 0
1.896972 -0.355523 0.000000 0
1.906457 -0.359195 0.000000 0
1.915937 -0.362886 0.000000 0
1.925411 -0.366595 0.000000 0
1.934880 -0.370323 0.000000 0
1.944344 -0.374070 0.000000 0
1.953802 -0.377835 0.000000 0
1.963254 -0.381618 0.000000 0
0.000000 0.000000 0.000000 1
0.010000 -0.000006 0.000000 1
0.020000 -0.000026 0.000000 1
0.030000 -0.000058 0.000000 1
0.040000 -0.000102 0.000000 1
0.050000 -0.000160 0.000000 1
0.060000 -0.000230 0.000000 1
0.069999 -0.000314 0.000000 1
0.079999 -0.000410 0.000000 1
0.089999 -0.000518 0.000000 1
0.099998 -0.000640 0.000000 1
0.109997 -0.000774 0.000000 1
0.119996 -0.000922 0.000000 1
0.129996 -0.001082 0.000000 1
0.139994 -0.001254 0.000000 1
0.149993 -0.001440 0.000000 1
0.159992 -0.001638 0.000000 1
0.169990 -0.001849 0.000000 1
0.179988 -0.002073 0.000000 1
0.189986 -0.002310 0.000000 1
0.199984 -0.002560 0.000000 1
0.209981 -0.002822 0.000000 1
0.219978 -0.003097 0.000000 1
0.229975 -0.003385 0.000000 1
0.239972 -0.003686 0.000000 1
0.249968 -0.004000 0.000000 1
0.259964 -0.004326 0.000000 1
0.269960 -0.004665 0.000000 1
0.279955 -0.005017 0.000000 1
0.289950 -0.005382 0.000000 1
0.299945 -0.005759 0.000000 1
0.309939 -0.006150 0.000000 1
0.319933 -0.006553 0.000000 1
0.329926 -0.006969 0.000000 1
0.339920 -0.007397 0.000000 1
0.349912 -0.007839 0.000000 1
0.359904 -0.008293 0.000000 1
0.369896 -0.008760 0.000000 1
0.379888 -0.009240 0.000000 1
0.389879 -0.009733 0.000000 1
0.399869 -0.010238 0.000000 1
0.409859 -0.010756 0.000000 1
0.419848 -0.011287 0.000000 1
0.429837 -0.011831 0.000000 1
0.439826 -0.012388 0.000000 1
0.449813 -0.012957 0.000000 1
0.459801 -0.013539 0.000000 1
0.469787 -0.014134 0.000000 1
0.479774 -0.014742 0.000000 1
0.489759 -0.015363 0.000000 1
0.499744 -0.015996 0.000000 1
0.509728 -0.016642 0.000000 1
0.519712 -0.017301 0.000000 1
0.529695 -0.017973 0.000000 1
0.539678 -0.018657 0.000000 1
0.549659 -0.019355 0.000000 1
0.559640 -0.020065 0.000000 1
0.569621 -0.020787 0.000000 1
0.579601 -0.021523 0.000000 1
0.589579 -0.022272 0.000000 1
0.599558 -0.023033 0.000000 1
0.609535 -0.023807 0.000000 1
0.619512 -0.024593 0.000000 1
0.629488 -0.025393 0.000000 1
0.639463 -0.026205 0.000000 1
0.649438 -0.027030 0.000000 1
0.659411 -0.027868 0.000000 1
0.669384 -0.028719 0.000000 1
0.679356 -0.029582 0.000000 1
0.689327 -0.030458 0.000000 1
0.699298 -0.031347 0.000000 1
0.709267 -0.032249 0.000000 1
0.719236 -0.033163 0.000000 1
0.729204 -0.034091 0.000000 1
0.739170 -0.035031 0.000000 1
0.749136 -0.035984 0.000000 1
0.759101 -0.036949 0.000000 1
0.769065 -0.037928 0.000000 1
0.779028 -0.038919 0.000000 1
0.788991 -0.039923 0.000000 1
0.798952 -0.040939 0.000000 1
0.808912 -0.041969 0.000000 1
0.818871 -0.043011 0.000000 1
0.828829 -0.044066 0.000000 1
0.838787 -0.045133 0.000000 1
0.848743 -0.046214 0.000000 1
0.858698 -0.047307 0.000000 1
0.868652 -0.048413 0.000000 1
0.878605 -0.049532 0.000000 1
0.888557 -0.050663 0.000000 1
0.898508 -0.051808 0.000000 1
0.908457 -0.052965 0.000000 1
0.918406 -0.054134 0.000000 1
0.928353 -0.055317 0.000000 1
0.938300 -0.056512 0.000000 1
0.948245 -0.057720 0.000000 1
0.958189 -0.058941 0.000000 1
0.968132 -0.060175 0.000000 1
0.978073 -0.061421 0.000000 1
0.988014 -0.062680 0.000000 1
0.997953 -0.063952 0.000000 1
1.007891 -0.065236 0.000000 1
1.017828 -0.066534 0.000000 1
1.027763 -0.067844 0.000000 1
1.037697 -0.069166 0.000000 1
1.047630 -0.070502 0.000000 1
1.057562 -0.071850 0.000000 1
1.067492 -0.073211 0.000000 1
1.077422 -0.074585 0.000000 1
1.087349 -0.075971 0.000000 1
1.097276 -0.077371 0.000000 1
1.107201 -0.078782 0.000000 1
1.117124 -0.080207 0.000000 1
1.127047 -0.081645 0.000000 1
1.136968 -0.083095 0.000000 1
1.146887 -0.084558 0.000000 1
1.156805 -0.086033 0.000000 1
1.166722 -0.087521 0.000000 1
1.176637 -0.089023 0.000000 1
1.186551 -0.090536 0.000000 1
1.196463 -0.092063 0.000000 1
1.206374 -0.093602 0.000000 1
1.216284 -0.095154 0.000000 1
1.226191 -0.096719 0.000000 1
1.236098 -0.098296 0.000000 1
1.246003 -0.099886 0.000000 1
1.255906 -0.101489 0.000000 1
1.265808 -0.103105 0.000000 1
1.275708 -0.104733 0.000000 1
1.285607 -0.106374 0.000000 1
1.295504 -0.108028 0.000000 1
1.305399 -0.109694 0.000000 1
1.315293 -0.111373 0.000000 1
1.325185 -0.113065 0.000000 1
1.335076 -0.114769 0.000000 1
1.344965 -0.116487 0.000000 1
1.354852 -0.118217 0.000000 1
1.364738 -0.119959 0.000000 1
1.374622 -0.121714 0.000000 1
1.384504 -0.123483 0.000000 1
1.394385 -0.125263 0.000000 1
1.404264 -0.127057 0.000000 1
1.414141 -0.128863 0.000000 1
1.424016 -0.130682 0.000000 1
1.433890 -0.132513 0.000000 1
1.443762 -0.134357 0.000000 1
1.453632 -0.136214 0.000000 1
1.463500 -0.138084 0.000000 1
1.473367 -0.139966 0.000000 1
1.483231 -0.141861 0.000000 1
1.493094 -0.143769 0.000000 1
1.502955 -0.145689 0.000000 1
1.512815 -0.147622 0.000000 1
1.522672 -0.149568 0.000000 1
1.532527 -0.151526 0.000000 1
1.542381 -0.153497 0.000000 1
1.552233 -0.155481 0.000000 1
1.562082 -0.157477 0.000000 1
1.571930 -0.159486 0.000000 1
1.581776 -0.161508 0.000000 1
1.591620 -0.163542 0.000000 1
1.601462 -0.165589 0.000000 1
1.611302 -0.167649 0.000000 1
1.621140 -0.169721 0.000000 1
1.630976 -0.171806 0.000000 1
1.640810 -0.173904 0.000000 1
1.650642 -0.176014 0.000000 1
1.660472 -0.178137 0.000000 1
1.670300 -0.180273 0.000000 1
1.680126 -0.182421 0.000000 1
1.689950 -0.184582 0.000000 1
1.699771 -0.186756 0.000000 1
1.709591 -0.188942 0.000000 1
1.719408 -0.191141 0.000000 1
1.729224 -0.193352 0.000000 1
1.739037 -0.195577 0.000000 1
1.748848 -0.197813 0.000000 1
1.758657 -0.200063 0.000000 1
1.768464 -0.202325 0.000000 1
1.778269 -0.204600 0.000000 1
1.788071 -0.206887 0.000000 1
1.797871 -0.209187 0.000000 1
1.807669 -0.211499 0.000000 1
1.817465 -0.213825 0.000000 1
1.827259 -0.216163 0.000000 1
1.837050 -0.218513 0.000000 1
1.846839 -0.220876 0.000000 1
1.856626 -0.223252 0.000000 1
1.866410 -0.225640 0.000000 1
1.876192 -0.228041 0.000000 1
1.885972 -0.230455 0.000000 1
1.895750 -0.232881 0.000000 1
1.905525 -0.235320 0.000000 1
1.915298 -0.237771 0.000000 1
1.925068 -0.240235 0.000000 1
1.934836 -0.242711 0.000000 1
1.944602 -0.245201 0.000000 1
1.954365 -0.247702 0.000000 1
1.964126 -0.250217 0.000000 1
1.973885 -0.252744 0.000000 1
1.983641 -0.255283 0.000000 1
0.000000 0.000000 0.000000 2
0.010000 -0.000003 0.000000 2
0.020000 -0.000013 0.000000 2
0.030000 -0.000029 0.000000 2
0.040000 -0.000051 0.000000 2
0.050000 -0.000080 0.000000 2
0.060000 -0.000115 0.000000 2
0.070000 -0.000157 0.000000 2
0.080000 -0.000205 0.000000 2
0.090000 -0.000259 0.000000 2
0.099999 -0.000320 0.000000 2
0.109999 -0.000387 0.000000 2
0.119999 -0.000461 0.000000 2
0.129999 -0.000541 0.000000 2
0.139999 -0.000627 0.000000 2
0.149998 -0.000720 0.000000 2
0.159998 -0.000819 0.000000 2
0.169997 -0.000925 0.000000 2
0.179997 -0.001037 0.000000 2
0.189996 -0.001155 0.000000 2
0.199996 -0.001280 0.000000 2
0.209995 -0.001411 0.000000 2
0.219995 -0.001549 0.000000 2
0.229994 -0.001693 0.000000 2
0.239993 -0.001843 0.000000 2
0.249992 -0.002000 0.000000 2
0.259991 -0.002163 0.000000 2
0.269990 -0.002333 0.000000 2
0.279989 -0.002509 0.000000 2
0.289988 -0.002691 0.000000 2
0.299986 -0.002880 0.000000 2
0.309985 -0.003075 0.000000 2
0.319983 -0.003277 0.000000 2
0.329982 -0.003484 0.000000 2
0.339980 -0.003699 0.000000 2
0.349978 -0.003920 0.000000 2
0.359976 -0.004147 0.000000 2
0.369974 -0.004380 0.000000 2
0.379972 -0.004620 0.000000 2
0.389970 -0.004867 0.000000 2
0.399967 -0.005119 0.000000 2
0.409965 -0.005379 0.000000 2
0.419962 -0.005644 0.000000 2
0.429959 -0.005916 0.000000 2
0.439956 -0.006195 0.000000 2
0.449953 -0.006479 0.000000 2
0.459950 -0.006770 0.000000 2
0.469947 -0.007068 0.000000 2
0.479943 -0.007372 0.000000 2
0.489940 -0.007682 0.000000 2
0.499936 -0.007999 0.000000 2
0.509932 -0.008322 0.000000 2
0.519928 -0.008652 0.000000 2
0.529924 -0.008988 0.000000 2
0.539919 -0.009330 0.000000 2
0.549915 -0.009679 0.000000 2
0.559910 -0.010034 0.000000 2
0.569905 -0.010395 0.000000 2
0.579900 -0.010763 0.000000 2
0.589895 -0.011138 0.000000 2
0.599889 -0.011518 0.000000 2
0.609884 -0.011906 0.000000 2
0.619878 -0.012299 0.000000 2
0.629872 -0.012699 0.000000 2
0.639866 -0.013105 0.000000 2
0.649859 -0.013518 0.000000 2
0.659853 -0.013937 0.000000 2
0.669846 -0.014363 0.000000 2
0.679839 -0.014795 0.000000 2
0.689832 -0.015233 0.000000 2
0.699824 -0.015678 0.000000 2
0.709817 -0.016129 0.000000 2
0.719809 -0.016586 0.000000 2
0.729801 -0.017050 0.000000 2
0.739793 -0.017520 0.000000 2
0.749784 -0.017997 0.000000 2
0.759775 -0.018480 0.000000 2
0.769766 -0.018970 0.000000 2
0.779757 -0.019465 0.000000 2
0.789748 -0.019968 0.000000 2
0.799738 -0.020476 0.000000 2
0.809728 -0.020991 0.000000 2
0.819718 -0.021513 0.000000 2
0.829707 -0.022041 0.000000 2
0.839697 -0.022575 0.000000 2
0.849686 -0.023115 0.000000 2
0.859674 -0.023663 0.000000 2
0.869663 -0.024216 0.000000 2
0.879651 -0.024776 0.000000 2
0.889639 -0.025342 0.000000 2
0.899627 -0.025915 0.000000 2
0.909614 -0.026494 0.000000 2
0.919601 -0.027079 0.000000 2
0.929588 -0.027671 0.000000 2
0.939575 -0.028269 0.000000 2
0.949561 -0.028873 0.000000 2
0.959547 -0.029484 0.000000 2
0.969533 -0.030102 0.000000 2
0.979518 -0.030726 0.000000 2
0.989503 -0.031356 0.000000 2
0.999488 -0.031992 0.000000 2
1.009473 -0.032635 0.000000 2
1.019457 -0.033285 0.000000 2
1.029441 -0.033940 0.000000 2
1.039424 -0.034602 0.000000 2
1.049407 -0.035271 0.000000 2
1.059390 -0.035946 0.000000 2
1.069373 -0.036627 0.000000 2
1.079355 -0.037315 0.000000 2
1.089337 -0.038009 0.000000 2
1.099319 -0.038709 0.000000 2
1.109300 -0.039416 0.000000 2
1.119281 -0.040129 0.000000 2
1.129261 -0.040849 0.000000 2
1.139242 -0.041575 0.000000 2
1.149222 -0.042307 0.000000 2
1.159201 -0.043046 0.000000 2
1.169180 -0.043791 0.000000 2
1.179159 -0.044543 0.000000 2
1.189137 -0.045301 0.000000 2
1.199115 -0.046065 0.000000 2
1.209093 -0.046836 0.000000 2
1.219071 -0.047613 0.000000 2
1.229047 -0.048397 0.000000 2
1.239024 -0.049187 0.000000 2
1.249000 -0.049983 0.000000 2
1.258976 -0.050786 0.000000 2
1.268952 -0.051595 0.000000 2
1.278927 -0.052410 0.000000 2
1.288901 -0.053232 0.000000 2
1.298875 -0.054061 0.000000 2
1.308849 -0.054895 0.000000 2
1.318823 -0.055736 0.000000 2
1.328796 -0.056584 0.000000 2
1.338768 -0.057437 0.000000 2
1.348741 -0.058298 0.000000 2
1.358712 -0.059164 0.000000 2
1.368684 -0.060037 0.000000 2
1.378655 -0.060917 0.000000 2
1.388625 -0.061802 0.000000 2
1.398596 -0.062695 0.000000 2
1.408565 -0.063593 0.000000 2
1.418534 -0.064498 0.000000 2
1.428503 -0.065409 0.000000 2
1.438472 -0.066327 0.000000 2
1.448440 -0.067251 0.000000 2
1.458407 -0.068181 0.000000 2
1.468374 -0.069118 0.000000 2
1.478341 -0.070062 0.000000 2
1.488307 -0.071011 0.000000 2
1.498273 -0.071967 0.000000 2
1.508238 -0.072930 0.000000 2
1.518203 -0.073898 0.000000 2
1.528167 -0.074874 0.000000 2
1.538131 -0.075855 0.000000 2
1.548094 -0.076843 0.000000 2
1.558057 -0.077837 0.000000 2
1.568019 -0.078838 0.000000 2
1.577981 -0.079845 0.000000 2
1.587943 -0.080858 0.000000 2
1.597904 -0.081878 0.000000 2
1.607864 -0.082905 0.000000 2
1.617824 -0.083937 0.000000 2
1.627783 -0.084976 0.000000 2
1.637742 -0.086022 0.000000 2
1.647701 -0.087073 0.000000 2
1.657659 -0.088131 0.000000 2
1.667616 -0.089196 0.000000 2
1.677573 -0.090267 0.000000 2
1.687530 -0.091344 0.000000 2
1.697486 -0.092428 0.000000 2
1.707441 -0.093518 0.000000 2
1.717396 -0.094614 0.000000 2
1.727350 -0.095717 0.000000 2
1.737304 -0.096826 0.000000 2
1.747257 -0.097942 0.000000 2
1.757210 -0.099064 0.000000 2
1.767162 -0.100192 0.000000 2
1.777114 -0.101327 0.000000 2
1.787065 -0.102468 0.000000 2
1.797015 -0.103615 0.000000 2
1.806965 -0.104769 0.000000 2
1.816915 -0.105929 0.000000 2
1.826864 -0.107096 0.000000 2
1.836812 -0.108269 0.000000 2
1.846760 -0.109448 0.000000 2
1.856707 -0.110634 0.000000 2
1.866653 -0.111826 0.000000 2
1.876599 -0.113024 0.000000 2
1.886545 -0.114229 0.000000 2
1.896490 -0.115441 0.000000 2
1.906434 -0.116658 0.000000 2
1.916378 -0.117882 0.000000 2
1.926321 -0.119112 0.000000 2
1.936263 -0.120349 0.000000 2
1.946205 -0.121592 0.000000 2
1.956147 -0.122842 0.000000 2
1.966087 -0.124098 0.000000 2
1.976028 -0.125360 0.000000 2
1.985967 -0.126628 0.000000 2
1.995906 -0.127903 0.000000 2
0.000000 0.000000 0.000000 3
0.010000 -0.000000 0.000000 3
0.020000 -0.000000 0.000000 3
0.030000 -0.000000 0.000000 3
0.040000 -0.000000 0.000000 3
0.050000 -0.000000 0.000000 3
0.060000 -0.000000 0.000000 3
0.070000 -0.000000 0.000000 3
0.080000 -0.000000 0.000000 3
0.090000 -0.000000 0.000000 3
0.100000 -0.000000 0.000000 3
0.110000 -0.000000 0.000000 3
0.120000 -0.000000 0.000000 3
0.130000 -0.000000 0.000000 3
0.140000 -0.000000 0.000000 3
0.150000 -0.000000 0.000000 3
0.160000 -0.000000 0.000000 3
0.170000 -0.000000 0.000000 3
0.180000 -0.000000 0.000000 3
0.190000 -0.000000 0.000000 3
0.200000 -0.000000 0.000000 3
0.210000 -0.000000 0.000000 3
0.220000 -0.000000 0.000000 3
0.230000 -0.000000 0.000000 3
0.240000 -0.000000 0.000000 3
0.250000 -0.000000 0.000000 3
0.260000 -0.000000 0.000000 3
0.270000 -0.000000 0.000000 3
0.280000 -0.000000 0.000000 3
0.290000 -0.000000 0.000000 3
0.300000 -0.000000 0.000000 3
0.310000 -0.000000 0.000000 3
0.320000 -0.000000 0.000000 3
0.330000 -0.000000 0.000000 3
0.340000 -0.000000 0.000000 3
0.350000 -0.000000 0.000000 3
0.360000 -0.000000 0.000000 3
0.370000 -0.000000 0.000000 3
0.380000 -0.000000 0.000000 3
0.390000 -0.000000 0.000000 3
0.400000 -0.000000 0.000000 3
0.410000 -0.000000 0.000000 3
0.420000 -0.000000 0.000000 3
0.430000 -0.000000 0.000000 3
0.440000 -0.000000 0.000000 3
0.450000 -0.000000 0.000000 3
0.460000 -0.000000 0.000000 3
0.470000 -0.000000 0.000000 3
0.480000 -0.000000 0.000000 3
0.490000 -0.000000 0.000000 3
0.500000 -0.000000 0.000000 3
0.510000 -0.000000 0.000000 3
0.520000 -0.000000 0.000000 3
0.530000 -0.000000 0.000000 3
0.540000 -0.000000 0.000000 3
0.550000 -0.000000 0.000000 3
0.560000 -0.000000 0.000000 3
0.570000 -0.000000 0.000000 3
0.580000 -0.000000 0.000000 3
0.590000 -0.000000 0.000000 3
0.600000 -0.000000 0.000000 3
0.610000 -0.000000 0.000000 3
0.620000 -0.000000 0.000000 3
0.630000 -0.000000 0.000000 3
0.640000 -0.000000 0.000000 3
0.650000 -0.000000 0.000000 3
0.660000 -0.000000 0.000000 3
0.670000 -0.000000 0.000000 3
0.680000 -0.000000 0.000000 3
0.690000 -0.000000 0.000000 3
0.700000 -0.000000 0.000000 3
0.710000 -0.000000 0.000000 3
0.720000 -0.000000 0.000000 3
0.730000 -0.000000 0.000000 3
0.740000 -0.000000 0.000000 3
0.750000 -0.000000 0.000000 3
0.760000 -0.000000 0.000000 3
0.770000 -0.000000 0.000000 3
0.780000 -0.000000 0.000000 3
0.790000 -0.000000 0.000000 3
0.800000 -0.000000 0.000000 3
0.810000 -0.000000 0.000000 3
0.820000 -0.000000 0.000000 3
0.830000 -0.000000 0.000000 3
0.840000 -0.000000 0.000000 3
0.850000 -0.000000 0.000000 3
0.860000 -0.000000 0.000000 3
0.870000 -0.000000 0.000000 3
0.880000 -0.000000 0.000000 3
0.890000 -0.000000 0.000000 3
0.900000 -0.000000 0.000000 3
0.910000 -0.000000 0.000000 3
0.920000 -0.000000 0.000000 3
0.930000 -0.000000 0.000000 3
0.940000 -0.000000 0.000000 3
0.950000 -0.000000 0.000000 3
0.960000 -0.000000 0.000000 3
0.970000 -0.000000 0.000000 3
0.980000 -0.000000 0.000000 3
0.990000 -0.000000 0.000000 3
1.000000 -0.000000 0.000000 3
1.010000 -0.000000 0.000000 3
1.020000 -0.000000 0.000000 3
1.030000 -0.000000 0.000000 3
1.040000 -0.000000 0.000000 3
1.050000 -0.000000 0.000000 3
1.060000 -0.000000 0.000000 3
1.070000 -0.000000 0.000000 3
1.080000 -0.000000 0.000000 3
1.090000 -0.000000 0.000000 3
1.100000 -0.000000 0.000000 3
1.110000 -0.000000 0.000000 3
1.120000 -0.000000 0.000000 3
1.130000 -0.000000 0.000000 3
1.140000 -0.000000 0.000000 3
1.150000 -0.000000 0.000000 3
1.160000 -0.000000 0.000000 3
1.170000 -0.000000 0.000000 3
1.180000 -0.000000 0.000000 3
1.190000 -0.000000 0.000000 3
1.200000 -0.000000 0.000000 3
1.210000 -0.000000 0.000000 3
1.220000 -0.000000 0.000000 3
1.230000 -0.000000 0.000000 3
1.240000 -0.000000 0.000000 3
1.250000 -0.000000 0.000000 3
1.260000 -0.000000 0.000000 3
1.270000 -0.000000 0.000000 3
1.280000 -0.000000 0.000000 3
1.290000 -0.000000 0.000000 3
1.300000 -0.000000 0.000000 3
1.310000 -0.000000 0.000000 3
1.320000 -0.000000 0.000000 3
1.330000 -0.000000 0.000000 3
1.340000 -0.000000 0.000000 3
1.350000 -0.000000 0.000000 3
1.360000 -0.000000 0.000000 3
1.370000 -0.000000 0.000000 3
1.380000 -0.000000 0.000000 3
1.390000 -0.000000 0.000000 3
1.400000 -0.000000 0.000000 3
1.410000 -0.000000 0.000000 3
1.420000 -0.000000 0.000000 3
1.430000 -0.000000 0.000000 3
1.440000 -0.000000 0.000000 3
1.450000 -0.000000 0.000000 3
1.460000 -0.000000 0.000000 3
1.470000 -0.000000 0.000000 3
1.480000 -0.000000 0.000000 3
1.490000 -0.000000 0.000000 3
1.500000 -0.000000 0.000000 3
1.510000 -0.000000 0.000000 3
1.520000 -0.000000 0.000000 3
1.530000 -0.000000 0.000000 3
1.540000 -0.000000 0.000000 3
1.550000 -0.000000 0.000000 3
1.560000 -0.000000 0.000000 3
1.570000 -0.000000 0.000000 3
1.580000 -0.000000 0.000000 3
1.590000 -0.000000 0.000000 3
1.600000 -0.000000 0.000000 3
1.610000 -0.000000 0.000000 3
1.620000 -0.000000 0.000000 3
1.630000 -0.000000 0.000000 3
1.640000 -0.000000 0.000000 3
1.650000 -0.000000 0.000000 3
1.660000 -0.000000 0.000000 3
1.670000 -0.000000 0.000000 3
1.680000 -0.000000 0.000000 3
1.690000 -0.000000 0.000000 3
1.700000 -0.000000 0.000000 3
1.710000 -0.000000 0.000000 3
1.720000 -0.000000 0.000000 3
1.730000 -0.000000 0.000000 3
1.740000 -0.000000 0.000000 3
1.750000 -0.000000 0.000000 3
1.760000 -0.000000 0.000000 3
1.770000 -0.000000 0.000000 3
1.780000 -0.000000 0.000000 3
1.790000 -0.000000 0.000000 3
1.800000 -0.000000 0.000000 3
1.810000 -0.000000 0.000000 3
1.820000 -0.000000 0.000000 3
1.830000 -0.000000 0.000000 3
1.840000 -0.000000 0.000000 3
1.850000 -0.000000 0.000000 3
1.860000 -0.000000 0.000000 3
1.870000 -0.000000 0.000000 3
1.880000 -0.000000 0.000000 3
1.890000 -0.000000 0.000000 3
1.900000 -0.000000 0.000000 3
1.910000 -0.000000 0.000000 3
1.920000 -0.000000 0.000000 3
1.930000 -0.000000 0.000000 3
1.940000 -0.000000 0.000000 3
1.950000 -0.000000 0.000000 3
1.960000 -0.000000 0.000000 3
1.970000 -0.000000 0.000000 3
1.980000 -0.000000 0.000000 3
1.990000 -0.000000 0.000000 3
2.000000 -0.000000 0.000000 3
0.000000 0.000000 0.000000 4
0.010000 0.000003 0.000000 4
0.020000 0.000013 0.000000 4
0.030000 0.000029 0.000000 4
0.040000 0.000051 0.000000 4
0.050000 0.000080 0.000000 4
0.060000 0.000115 0.000000 4
0.070000 0.000157 0.000000 4
0.080000 0.000205 0.000000 4
0.090000 0.000259 0.000000 4
0.099999 0.000320 0.000000 4
0.109999 0.000387 0.000000 4
0.119999 0.000461 0.000000 4
0.129999 0.000541 0.000000 4
0.139999 0.000627 0.000000 4
0.149998 0.000720 0.000000 4
0.159998 0.000819 0.000000 4
0.169997 0.000925 0.000000 4
0.179997 0.001037 0.000000 4
0.189996 0.001155 0.000000 4
0.199996 0.001280 0.000000 4
0.209995 0.001411 0.000000 4
0.219995 0.001549 0.000000 4
0.229994 0.001693 0.000000 4
0.239993 0.001843 0.000000 4
0.249992 0.002000 0.000000 4
0.259991 0.002163 0.000000 4
0.269990 0.002333 0.000000 4
0.279989 0.002509 0.000000 4
0.289988 0.002691 0.000000 4
0.299986 0.002880 0.000000 4
0.309985 0.003075 0.000000 4
0.319983 0.003277 0.000000 4
0.329982 0.003484 0.000000 4
0.339980 0.003699 0.000000 4
0.349978 0.003920 0.000000 4
0.359976 0.004147 0.000000 4
0.369974 0.004380 0.000000 4
0.379972 0.004620 0.000000 4
0.389970 0.004867 0.000000 4
0.399967 0.005119 0.000000 4
0.409965 0.005379 0.000000 4
0.419962 0.005644 0.000000 4
0.429959 0.005916 0.000000 4
0.439956 0.006195 0.000000 4
0.449953 0.006479 0.000000 4
0.459950 0.006770 0.000000 4
0.469947 0.007068 0.000000 4
0.479943 0.007372 0.000000 4
0.489940 0.007682 0.000000 4
0.499936 0.007999 0.000000 4
0.509932 0.008322 0.000000 4
0.519928 0.008652 0.000000 4
0.529924 0.008988 0.000000 4
0.539919 0.009330 0.000000 4
0.549915 0.009679 0.000000 4
0.559910 0.010034 0.000000 4
0.569905 0.010395 0.000000 4
0.579900 0.010763 0.000000 4
0.589895 0.011138 0.000000 4
0.599889 0.011518 0.000000 4
0.609884 0.011906 0.000000 4
0.619878 0.012299 0.000000 4
0.629872 0.012699 0.000000 4
0.639866 0.013105 0.000000 4
0.649859 0.013518 0.000000 4
0.659853 0.013937 0.000000 4
0.669846 0.014363 0.000000 4
0.679839 0.014795 0.000000 4
0.689832 0.015233 0.000000 4
0.699824 0.015678 0.000000 4
0.709817 0.016129 0.000000 4
0.719809 0.016586 0.000000 4
0.729801 0.017050 0.000000 4
0.739793 0.017520 0.000000 4
0.749784 0.017997 0.000000 4
0.759775 0.018480 0.000000 4
0.769766 0.018970 0.000000 4
0.779757 0.019465 0.000000 4
0.789748 0.019968 0.000000 4
0.799738 0.020476 0.000000 4
0.809728 0.020991 0.000000 4
0.819718 0.021513 0.000000 4
0.829707 0.022041 0.000000 4
0.839697 0.022575 0.000000 4
0.849686 0.023115 0.000000 4
0.859674 0.023663 0.000000 4
0.869663 0.024216 0.000000 4
0.879651 0.024776 0.000000 4
0.889639 0.025342 0.000000 4
0.899627 0.025915 0.000000 4
0.909614 0.026494 0.000000 4
0.919601 0.027079 0.000000 4
0.929588 0.027671 0.000000 4
0.939575 0.028269 0.000000 4
0.949561 0.028873 0.000000 4
0.959547 0.029484 0.000000 4
0.969533 0.030102 0.000000 4
0.979518 0.030726 0.000000 4
0.989503 0.031356 0.000000 4
0.999488 0.031992 0.000000 4
1.009473 0.032635 0.000000 4
1.019457 0.033285 0.000000 4
1.029441 0.033940 0.000000 4
1.039424 0.034602 0.000000 4
1.049407 0.035271 0.000000 4
1.059390 0.035946 0.000000 4
1.069373 0.036627 0.000000 4
1.079355 0.037315 0.000000 4
1.089337 0.038009 0.000000 4
1.099319 0.038709 0.000000 4
1.109300 0.039416 0.000000 4
1.119281 0.040129 0.000000 4
1.129261 0.040849 0.000000 4
1.139242 0.041575 0.000000 4
1.149222 0.042307 0.000000 4
1.159201 0.043046 0.000000 4
1.169180 0.043791 0.000000 4
1.179159 0.044543 0.000000 4
1.189137 0.045301 0.000000 4
1.199115 0.046065 0.000000 4
1.209093 0.046836 0.000000 4
1.219071 0.047613 0.000000 4
1.229047 0.048397 0.000000 4
1.239024 0.049187 0.000000 4
1.249000 0.049983 0.000000 4
1.258976 0.050786 0.000000 4
1.268952 0.051595 0.000000 4
1.278927 0.052410 0.000000 4
1.288901 0.053232 0.000000 4
1.298875 0.054061 0.000000 4
1.308849 0.054895 0.000000 4
1.318823 0.055736 0.000000 4
1.328796 0.056584 0.000000 4
1.338768 0.057437 0.000000 4
1.348741 0.058298 0.000000 4
1.358712 0.059164 0.000000 4
1.368684 0.060037 0.000000 4
1.378655 0.060917 0.000000 4
1.388625 0.061802 0.000000 4
1.398596 0.062695 0.000000 4
1.408565 0.063593 0.000000 4
1.418534 0.064498 0.000000 4
1.428503 0.065409 0.000000 4
1.438472 0.066327 0.000000 4
1.448440 0.067251 0.000000 4
1.458407 0.068181 0.000000 4
1.468374 0.069118 0.000000 4
1.478341 0.070062 0.000000 4
1.488307 0.071011 0.000000 4
1.498273 0.071967 0.000000 4
1.508238 0.072930 0.000000 4
1.518203 0.073898 0.000000 4
1.528167 0.074874 0.000000 4
1.538131 0.075855 0.000000 4
1.548094 0.076843 0.000000 4
1.558057 0.077837 0.000000 4
1.568019 0.078838 0.000000 4
1.577981 0.079845 0.000000 4
1.587943 0.080858 0.000000 4
1.597904 0.081878 0.000000 4
1.607864 0.082905 0.000000 4
1.617824 0.083937 0.000000 4
1.627783 0.084976 0.000000 4
1.637742 0.086022 0.000000 4
1.647701 0.087073 0.000000 4
1.657659 0.088131 0.000000 4
1.667616 0.089196 0.000000 4
1.677573 0.090267 0.000000 4
1.687530 0.091344 0.000000 4
1.697486 0.092428 0.000000 4
1.707441 0.093518 0.000000 4
1.717396 0.094614 0.000000 4
1.727350 0.095717 0.000000 4
1.737304 0.096826 0.000000 4
1.747257 0.097942 0.000000 4
1.757210 0.099064 0.000000 4
1.767162 0.100192 0.000000 4
1.777114 0.101327 0.000000 4
1.787065 0.102468 0.000000 4
1.797015 0.103615 0.000000 4
1.806965 0.104769 0.000000 4
1.816915 0.105929 0.000000 4
1.826864 0.107096 0.000000 4
1.836812 0.108269 0.000000 4
1.846760 0.109448 0.000000 4
1.856707 0.110634 0.000000 4
1.866653 0.111826 0.000000 4
1.876599 0.113024 0.000000 4
1.886545 0.114229 0.000000 4
1.896490 0.115441 0.000000 4
1.906434 0.116658 0.000000 4
1.916378 0.117882 0.000000 4
1.926321 0.119112 0.000000 4
1.936263 0.120349 0.000000 4
1.946205 0.121592 0.000000 4
1.956147 0.122842 0.000000 4
1.966087 0.124098 0.000000 4
1.976028 0.125360 0.000000 4
1.985967 0.126628 0.000000 4
1.995906 0.127903 0.000000 4
0.000000 0.000000 0.000000 5
0.010000 0.000006 0.000000 5
0.020000 0.000026 0.000000 5
0.030000 0.000058 0.000000 5
0.040000 0.000102 0.000000 5
0.050000 0.000160 0.000000 5
0.060000 0.000230 0.000000 5
0.069999 0.000314 0.000000 5
0.079999 0.000410 0.000000 5
0.089999 0.000518 0.000000 5
0.099998 0.000640 0.000000 5
0.109997 0.000774 0.000000 5
0.119996 0.000922 0.000000 5
0.129996 0.001082 0.000000 5
0.139994 0.001254 0.000000 5
0.149993 0.001440 0.000000 5
0.159992 0.001638 0.000000 5
0.169990 0.001849 0.000000 5
0.179988 0.002073 0.000000 5
0.189986 0.002310 0.000000 5
0.199984 0.002560 0.000000 5
0.209981 0.002822 0.000000 5
0.219978 0.003097 0.000000 5
0.229975 0.003385 0.000000 5
0.239972 0.003686 0.000000 5
0.249968 0.004000 0.000000 5
0.259964 0.004326 0.000000 5
0.269960 0.004665 0.000000 5
0.279955 0.005017 0.000000 5
0.289950 0.005382 0.000000 5
0.299945 0.005759 0.000000 5
0.309939 0.006150 0.000000 5
0.319933 0.006553 0.000000 5
0.329926 0.006969 0.000000 5
0.339920 0.007397 0.000000 5
0.349912 0.007839 0.000000 5
0.359904 0.008293 0.000000 5
0.369896 0.008760 0.000000 5
0.379888 0.009240 0.000000 5
0.389879 0.009733 0.000000 5
0.399869 0.010238 0.000000 5
0.409859 0.010756 0.000000 5
0.419848 0.011287 0.000000 5
0.429837 0.011831 0.000000 5
0.439826 0.012388 0.000000 5
0.449813 0.012957 0.000000 5
0.459801 0.013539 0.000000 5
0.469787 0.014134 0.000000 5
0.479774 0.014742 0.000000 5
0.489759 0.015363 0.000000 5
0.499744 0.015996 0.000000 5
0.509728 0.016642 0.000000 5
0.519712 0.017301 0.000000 5
0.529695 0.017973 0.000000 5
0.539678 0.018657 0.000000 5
0.549659 0.019355 0.000000 5
0.559640 0.020065 0.000000 5
0.569621 0.020787 0.000000 5
0.579601 0.021523 0.000000 5
0.589579 0.022272 0.000000 5
0.599558 0.023033 0.000000 5
0.609535 0.023807 0.000000 5
0.619512 0.024593 0.000000 5
0.629488 0.025393 0.000000 5
0.639463 0.026205 0.000000 5
0.649438 0.027030 0.000000 5
0.659411 0.027868 0.000000 5
0.669384 0.028719 0.000000 5
0.679356 0.029582 0.000000 5
0.689327 0.030458 0.000000 5
0.699298 0.031347 0.000000 5
0.709267 0.032249 0.000000 5
0.719236 0.033163 0.000000 5
0.729204 0.034091 0.000000 5
0.739170 0.035031 0.000000 5
0.749136 0.035984 0.000000 5
0.759101 0.036949 0.000000 5
0.769065 0.037928 0.000000 5
0.779028 0.038919 0.000000 5
0.788991 0.039923 0.000000 5
0.798952 0.040939 0.000000 5
0.808912 0.041969 0.000000 5
0.818871 0.043011 0.000000 5
0.828829 0.044066 0.000000 5
0.838787 0.045133 0.000000 5
0.848743 0.046214 0.000000 5
0.858698 0.047307 0.000000 5
0.868652 0.048413 0.000000 5
0.878605 0.049532 0.000000 5
0.888557 0.050663 0.000000 5
0.898508 0.051808 0.000000 5
0.908457 0.052965 0.000000 5
0.918406 0.054134 0.000000 5
0.928353 0.055317 0.000000 5
0.938300 0.056512 0.000000 5
0.948245 0.057720 0.000000 5
0.958189 0.058941 0.000000 5
0.968132 0.060175 0.000000 5
0.978073 0.061421 0.000000 5
0.988014 0.062680 0.000000 5
0.997953 0.063952 0.000000 5
1.007891 0.065236 0.000000 5
1.017828 0.066534 0.000000 5
1.027763 0.067844 0.000000 5
1.037697 0.069166 0.000000 5
1.047630 0.070502 0.000000 5
1.057562 0.071850 0.000000 5
1.067492 0.073211 0.000000 5
1.077422 0.074585 0.000000 5
1.087349 0.075971 0.000000 5
1.097276 0.077371 0.000000 5
1.107201 0.078782 0.000000 5
1.117124 0.080207 0.000000 5
1.127047 0.081645 0.000000 5
1.136968 0.083095 0.000000 5
1.146887 0.084558 0.000000 5
1.156805 0.086033 0.000000 5
1.166722 0.087521 0.000000 5
1.176637 0.089023 0.000000 5
1.186551 0.090536 0.000000 5
1.196463 0.092063 0.000000 5
1.206374 0.093602 0.000000 5
1.216284 0.095154 0.000000 5
1.226191 0.096719 0.000000 5
1.236098 0.098296 0.000000 5
1.246003 0.099886 0.000000 5
1.255906 0.101489 0.000000 5
1.265808 0.103105 0.000000 5
1.275708 0.104733 0.000000 5
1.285607 0.106374 0.000000 5
1.295504 0.108028 0.000000 5
1.305399 0.109694 0.000000 5
1.315293 0.111373 0.000000 5
1.325185 0.113065 0.000000 5
1.335076 0.114769 0.000000 5
1.344965 0.116487 0.000000 5
1.354852 0.118217 0.000000 5
1.364738 0.119959 0.000000 5
1.374622 0.121714 0.000000 5
1.384504 0.123483 0.000000 5
1.394385 0.125263 0.000000 5
1.404264 0.127057 0.000000 5
1.414141 0.128863 0.000000 5
1.424016 0.130682 0.000000 5
1.433890 0.132513 0.000000 5
1.443762 0.134357 0.000000 5
1.453632 0.136214 0.000000 5
1.463500 0.138084 0.000000 5
1.473367 0.139966 0.000000 5
1.483231 0.141861 0.000000 5
1.493094 0.143769 0.000000 5
1.502955 0.145689 0.000000 5
1.512815 0.147622 0.000000 5
1.522672 0.149568 0.000000 5
1.532527 0.151526 0.000000 5
1.542381 0.153497 0.000000 5
1.552233 0.155481 0.000000 5
1.562082 0.157477 0.000000 5
1.571930 0.159486 0.000000 5
1.581776 0.161508 0.000000 5
1.591620 0.163542 0.000000 5
1.601462 0.165589 0.000000 5
1.611302 0.167649 0.000000 5
1.621140 0.169721 0.000000 5
1.630976 0.171806 0.000000 5
1.640810 0.173904 0.000000 5
1.650642 0.176014 0.000000 5
1.660472 0.178137 0.000000 5
1.670300 0.180273 0.000000 5
1.680126 0.182421 0.000000 5
1.689950 0.184582 0.000000 5
1.699771 0.186756 0.000000 5
1.709591 0.188942 0.000000 5
1.719408 0.191141 0.000000 5
1.729224 0.193352 0.000000 5
1.739037 0.195577 0.000000 5
1.748848 0.197813 0.000000 5
1.758657 0.200063 0.000000 5
1.768464 0.202325 0.000000 5
1.778269 0.204600 0.000000 5
1.788071 0.206887 0.000000 5
1.797871 0.209187 0.000000 5
1.807669 0.211499 0.000000 5
1.817465 0.213825 0.000000 5
1.827259 0.216163 0.000000 5
1.837050 0.218513 0.000000 5
1.846839 0.220876 0.000000 5
1.856626 0.223252 0.000000 5
1.866410 0.225640 0.000000 5
1.876192 0.228041 0.000000 5
1.885972 0.230455 0.000000 5
1.895750 0.232881 0.000000 5
1.905525 0.235320 0.000000 5
1.915298 0.237771 0.000000 5
1.925068 0.240235 0.000000 5
1.934836 0.242711 0.000000 5
1.944602 0.245201 0.000000 5
1.954365 0.247702 0.000000 5
1.964126 0.250217 0.000000 5
1.973885 0.252744 0.000000 5
1.983641 0.255283 0.000000 5
0.000000 0.000000 0.000000 6
0.010000 0.000010 0.000000 6
0.020000 0.000038 0.000000 6
0.030000 0.000086 0.000000 6
0.040000 0.000154 0.000000 6
0.049999 0.000240 0.000000 6
0.059999 0.000346 0.000000 6
0.069998 0.000470 0.000000 6
0.079998 0.000614 0.000000 6
0.089997 0.000778 0.000000 6
0.099995 0.000960 0.000000 6
0.109994 0.001161 0.000000 6
0.119992 0.001382 0.000000 6
0.129990 0.001622 0.000000 6
0.139987 0.001881 0.000000 6
0.149984 0.002160 0.000000 6
0.159981 0.002457 0.000000 6
0.169977 0.002774 0.000000 6
0.179973 0.003110 0.000000 6
0.189968 0.003465 0.000000 6
0.199963 0.003839 0.000000 6
0.209957 0.004233 0.000000 6
0.219951 0.004646 0.000000 6
0.229944 0.005078 0.000000 6
0.239936 0.005529 0.000000 6
0.249928 0.005999 0.000000 6
0.259919 0.006488 0.000000 6
0.269909 0.006997 0.000000 6
0.279899 0.007525 0.000000 6
0.289888 0.008072 0.000000 6
0.299876 0.008638 0.000000 6
0.309863 0.009224 0.000000 6
0.319849 0.009828 0.000000 6
0.329834 0.010452 0.000000 6
0.339819 0.011095 0.000000 6
0.349802 0.011757 0.000000 6
0.359785 0.012438 0.000000 6
0.369767 0.013139 0.000000 6
0.379747 0.013858 0.000000 6
0.389727 0.014597 0.000000 6
0.399705 0.015355 0.000000 6
0.409682 0.016132 0.000000 6
0.419659 0.016929 0.000000 6
0.429634 0.017744 0.000000 6
0.439608 0.018579 0.000000 6
0.449580 0.019433 0.000000 6
0.459552 0.020306 0.000000 6
0.469522 0.021198 0.000000 6
0.479491 0.022109 0.000000 6
0.489458 0.023039 0.000000 6
0.499424 0.023989 0.000000 6
0.509389 0.024958 0.000000 6
0.519352 0.025946 0.000000 6
0.529314 0.026953 0.000000 6
0.539275 0.027979 0.000000 6
0.549234 0.029024 0.000000 6
0.559191 0.030089 0.000000 6
0.569147 0.031173 0.000000 6
0.579101 0.032275 0.000000 6
0.589054 0.033397 0.000000 6
0.599005 0.034538 0.000000 6
0.608955 0.035699 0.000000 6
0.618902 0.036878 0.000000 6
0.628848 0.038076 0.000000 6
0.638793 0.039294 0.000000 6
0.648735 0.040531 0.000000 6
0.658676 0.041787 0.000000 6
0.668615 0.043062 0.000000 6
0.678552 0.044356 0.000000 6
0.688487 0.045669 0.000000 6
0.698420 0.047001 0.000000 6
0.708352 0.048353 0.000000 6
0.718281 0.049723 0.000000 6
0.728208 0.051113 0.000000 6
0.738134 0.052522 0.000000 6
0.748057 0.053949 0.000000 6
0.757978 0.055396 0.000000 6
0.767898 0.056863 0.000000 6
0.777815 0.058348 0.000000 6
0.787729 0.059852 0.000000 6
0.797642 0.061375 0.000000 6
0.807553 0.062918 0.000000 6
0.817461 0.064479 0.000000 6
0.827367 0.066060 0.000000 6
0.837271 0.067659 0.000000 6
0.847172 0.069278 0.000000 6
0.857071 0.070916 0.000000 6
0.866968 0.072573 0.000000 6
0.876862 0.074249 0.000000 6
0.886754 0.075944 0.000000 6
0.896643 0.077658 0.000000 6
0.906530 0.079391 0.000000 6
0.916415 0.081143 0.000000 6
0.926297 0.082914 0.000000 6
0.936176 0.084704 0.000000 6
0.946053 0.086514 0.000000 6
0.955927 0.088342 0.000000 6
0.965798 0.090189 0.000000 6
0.975667 0.092056 0.000000 6
0.985533 0.093941 0.000000 6
0.995396 0.095846 0.000000 6
1.005257 0.097769 0.000000 6
1.015115 0.099712 0.000000 6
1.024970 0.101673 0.000000 6
1.034822 0.103654 0.000000 6
1.044671 0.105653 0.000000 6
1.054517 0.107672 0.000000 6
1.064361 0.109709 0.000000 6
1.074201 0.111766 0.000000 6
1.084039 0.113841 0.000000 6
1.093873 0.115936 0.000000 6
1.103705 0.118049 0.000000 6
1.113533 0.120182 0.000000 6
1.123359 0.122333 0.000000 6
1.133181 0.124504 0.000000 6
1.143000 0.126693 0.000000 6
1.152816 0.128902 0.000000 6
1.162629 0.131129 0.000000 6
1.172438 0.133375 0.000000 6
1.182244 0.135640 0.000000 6
1.192047 0.137925 0.000000 6
1.201847 0.140228 0.000000 6
1.211643 0.142550 0.000000 6
1.221436 0.144891 0.000000 6
1.231226 0.147251 0.000000 6
1.241012 0.149630 0.000000 6
1.250795 0.152027 0.000000 6
1.260574 0.154444 0.000000 6
1.270350 0.156880 0.000000 6
1.280122 0.159334 0.000000 6
1.289891 0.161808 0.000000 6
1.299656 0.164300 0.000000 6
1.309417 0.166811 0.000000 6
1.319175 0.169341 0.000000 6
1.328930 0.171890 0.000000 6
1.338680 0.174458 0.000000 6
1.348427 0.177045 0.000000 6
1.358170 0.179651 0.000000 6
1.367909 0.182275 0.000000 6
1.377645 0.184918 0.000000 6
1.387376 0.187581 0.000000 6
1.397104 0.190262 0.000000 6
1.406828 0.192962 0.000000 6
1.416548 0.195680 0.000000 6
1.426264 0.198418 0.000000 6
1.435977 0.201174 0.000000 6
1.445685 0.203950 0.000000 6
1.455389 0.206744 0.000000 6
1.465089 0.209557 0.000000 6
1.474785 0.212388 0.000000 6
1.484477 0.215239 0.000000 6
1.494165 0.218108 0.000000 6
1.503849 0.220996 0.000000 6
1.513528 0.223903 0.000000 6
1.523203 0.226829 0.000000 6
1.532874 0.229773 0.000000 6
1.542541 0.232737 0.000000 6
1.552204 0.235719 0.000000 6
1.561862 0.238720 0.000000 6
1.571516 0.241739 0.000000 6
1.581165 0.244777 0.000000 6
1.590811 0.247834 0.000000 6
1.600451 0.250910 0.000000 6
1.610087 0.254005 0.000000 6
1.619719 0.257118 0.000000 6
1.629346 0.260250 0.000000 6
1.638969 0.263401 0.000000 6
1.648587 0.266570 0.000000 6
1.658201 0.269758 0.000000 6
1.667810 0.272965 0.000000 6
1.677414 0.276190 0.000000 6
1.687014 0.279435 0.000000 6
1.696609 0.282697 0.000000 6
1.706199 0.285979 0.000000 6
1.715785 0.289279 0.000000 6
1.725366 0.292598 0.000000 6
1.734942 0.295936 0.000000 6
1.744513 0.299292 0.000000 6
1.754079 0.302667 0.000000 6
1.763640 0.306060 0.000000 6
1.773197 0.309472 0.000000 6
1.782748 0.312903 0.000000 6
1.792295 0.316353 0.000000 6
1.801837 0.319820 0.000000 6
1.811373 0.323307 0.000000 6
1.820905 0.326812 0.000000 6
1.830431 0.330336 0.000000 6
1.839952 0.333878 0.000000 6
1.849469 0.337439 0.000000 6
1.858980 0.341019 0.000000 6
1.868486 0.344617 0.000000 6
1.877986 0.348234 0.000000 6
1.887482 0.351869 0.000000 6
1.896972 0.355523 0.000000 6
1.906457 0.359195 0.000000 6
1.915937 0.362886 0.000000 6
1.925411 0.366595 0.000000 6
1.934880 0.370323 0.000000 6
1.944344 0.374070 0.000000 6
1.953802 0.377835 0.000000 6
1.963254 0.381618 0.000000 6
